<svg width="79" height="82" viewBox="0 0 79 82" fill="none" xmlns="http://www.w3.org/2000/svg">
<g filter="url(#filter0_d_324_851)">
<rect x="13" y="7.62962" width="53" height="52.3704" rx="26.1852" fill="#0040AB"/>
<g filter="url(#filter1_ii_324_851)">
<rect x="13" y="4" width="53" height="52.3704" rx="26.1852" fill="#478BFD"/>
</g>
<g filter="url(#filter2_di_324_851)">
<path d="M42.6484 25.2161C42.1173 25.2161 41.6863 24.7902 41.6863 24.2655V22.8395H37.8382V24.2655C37.8382 24.7902 37.4072 25.2161 36.8761 25.2161C36.3451 25.2161 35.9141 24.7902 35.9141 24.2655V22.8395C35.9141 21.791 36.777 20.9383 37.8382 20.9383H41.6863C42.7475 20.9383 43.6104 21.791 43.6104 22.8395V24.2655C43.6104 24.7902 43.1794 25.2161 42.6484 25.2161Z" fill="white"/>
<path d="M40.4454 33.6575C40.2722 33.7241 40.0221 33.7716 39.7623 33.7716C39.5026 33.7716 39.2524 33.7241 39.0216 33.6385L28.2178 30.0832V37.3364C28.2178 38.7814 29.4011 39.9506 30.8634 39.9506H48.6613C50.1236 39.9506 51.3069 38.7814 51.3069 37.3364V30.0832L40.4454 33.6575Z" fill="white"/>
<path d="M51.3069 26.4043V28.5812L39.9932 32.3077C39.9163 32.3362 39.8393 32.3457 39.7623 32.3457C39.6854 32.3457 39.6084 32.3362 39.5314 32.3077L28.2178 28.5812V26.4043C28.2178 24.9594 29.4011 23.7901 30.8634 23.7901H48.6613C50.1236 23.7901 51.3069 24.9594 51.3069 26.4043Z" fill="white"/>
</g>
</g>
<defs>
<filter id="filter0_d_324_851" x="0" y="0" width="79" height="82" filterUnits="userSpaceOnUse" color-interpolation-filters="sRGB">
<feFlood flood-opacity="0" result="BackgroundImageFix"/>
<feColorMatrix in="SourceAlpha" type="matrix" values="0 0 0 0 0 0 0 0 0 0 0 0 0 0 0 0 0 0 127 0" result="hardAlpha"/>
<feOffset dy="9"/>
<feGaussianBlur stdDeviation="6.5"/>
<feComposite in2="hardAlpha" operator="out"/>
<feColorMatrix type="matrix" values="0 0 0 0 0 0 0 0 0 0.305882 0 0 0 0 0.819608 0 0 0 0.3 0"/>
<feBlend mode="normal" in2="BackgroundImageFix" result="effect1_dropShadow_324_851"/>
<feBlend mode="normal" in="SourceGraphic" in2="effect1_dropShadow_324_851" result="shape"/>
</filter>
<filter id="filter1_ii_324_851" x="11" y="4" width="57" height="54.3704" filterUnits="userSpaceOnUse" color-interpolation-filters="sRGB">
<feFlood flood-opacity="0" result="BackgroundImageFix"/>
<feBlend mode="normal" in="SourceGraphic" in2="BackgroundImageFix" result="shape"/>
<feColorMatrix in="SourceAlpha" type="matrix" values="0 0 0 0 0 0 0 0 0 0 0 0 0 0 0 0 0 0 127 0" result="hardAlpha"/>
<feOffset dx="2" dy="4"/>
<feGaussianBlur stdDeviation="1"/>
<feComposite in2="hardAlpha" operator="arithmetic" k2="-1" k3="1"/>
<feColorMatrix type="matrix" values="0 0 0 0 1 0 0 0 0 1 0 0 0 0 1 0 0 0 0.2 0"/>
<feBlend mode="normal" in2="shape" result="effect1_innerShadow_324_851"/>
<feColorMatrix in="SourceAlpha" type="matrix" values="0 0 0 0 0 0 0 0 0 0 0 0 0 0 0 0 0 0 127 0" result="hardAlpha"/>
<feOffset dx="-2"/>
<feGaussianBlur stdDeviation="3"/>
<feComposite in2="hardAlpha" operator="arithmetic" k2="-1" k3="1"/>
<feColorMatrix type="matrix" values="0 0 0 0 1 0 0 0 0 1 0 0 0 0 1 0 0 0 0.2 0"/>
<feBlend mode="normal" in2="effect1_innerShadow_324_851" result="effect2_innerShadow_324_851"/>
</filter>
<filter id="filter2_di_324_851" x="17.9702" y="13.8519" width="43.5842" height="43.1852" filterUnits="userSpaceOnUse" color-interpolation-filters="sRGB">
<feFlood flood-opacity="0" result="BackgroundImageFix"/>
<feColorMatrix in="SourceAlpha" type="matrix" values="0 0 0 0 0 0 0 0 0 0 0 0 0 0 0 0 0 0 127 0" result="hardAlpha"/>
<feOffset dy="5"/>
<feGaussianBlur stdDeviation="2.5"/>
<feComposite in2="hardAlpha" operator="out"/>
<feColorMatrix type="matrix" values="0 0 0 0 0 0 0 0 0 0 0 0 0 0 0 0 0 0 0.3 0"/>
<feBlend mode="normal" in2="BackgroundImageFix" result="effect1_dropShadow_324_851"/>
<feBlend mode="normal" in="SourceGraphic" in2="effect1_dropShadow_324_851" result="shape"/>
<feColorMatrix in="SourceAlpha" type="matrix" values="0 0 0 0 0 0 0 0 0 0 0 0 0 0 0 0 0 0 127 0" result="hardAlpha"/>
<feOffset/>
<feGaussianBlur stdDeviation="3"/>
<feComposite in2="hardAlpha" operator="arithmetic" k2="-1" k3="1"/>
<feColorMatrix type="matrix" values="0 0 0 0 0.278431 0 0 0 0 0.545098 0 0 0 0 0.992157 0 0 0 0.4 0"/>
<feBlend mode="normal" in2="shape" result="effect2_innerShadow_324_851"/>
</filter>
</defs>
</svg>
