<svg width="1200" height="137" viewBox="0 0 1200 137" fill="none" xmlns="http://www.w3.org/2000/svg">
<path d="M59.2985 137C47.1838 137 36.7906 135.034 28.119 131.101C19.5749 127.169 12.8799 121.397 8.03399 113.786C3.31562 106.175 0.70138 96.7245 0.191285 85.4347C0.0637617 80.2338 0 74.6523 0 68.6903C0 62.7282 0.0637617 57.0199 0.191285 51.5653C0.70138 40.5292 3.37938 31.2056 8.22528 23.5944C13.0712 15.8565 19.8299 10.0213 28.5015 6.08889C37.1732 2.02963 47.4388 0 59.2985 0C67.7151 0 75.494 1.07824 82.6354 3.23473C89.7767 5.26435 96.0254 8.30879 101.381 12.3681C106.737 16.3005 110.882 21.1208 113.815 26.8292C116.875 32.4106 118.47 38.7532 118.597 45.8569C118.725 46.9986 118.342 47.95 117.449 48.7111C116.684 49.4722 115.728 49.8528 114.58 49.8528H88.7565C87.0987 49.8528 85.8235 49.5357 84.9308 48.9014C84.0381 48.1403 83.273 46.8083 82.6354 44.9056C80.85 38.1824 77.917 33.6157 73.8362 31.2056C69.883 28.6685 64.9733 27.4 59.1072 27.4C52.0934 27.4 46.5462 29.3662 42.4654 33.2986C38.3846 37.1042 36.153 43.5102 35.7704 52.5167C35.3878 62.9185 35.3878 73.5741 35.7704 84.4833C36.153 93.4898 38.3846 99.9593 42.4654 103.892C46.5462 107.697 52.0934 109.6 59.1072 109.6C64.9733 109.6 69.9468 108.331 74.0275 105.794C78.1083 103.257 80.9776 98.6907 82.6354 92.0944C83.1455 90.1917 83.8468 88.9232 84.7395 88.2889C85.7597 87.5278 87.0987 87.1472 88.7565 87.1472H114.58C115.728 87.1472 116.684 87.5278 117.449 88.2889C118.342 89.05 118.725 90.0014 118.597 91.1431C118.47 98.2468 116.875 104.653 113.815 110.361C110.882 115.943 106.737 120.763 101.381 124.822C96.0254 128.755 89.7767 131.799 82.6354 133.956C75.494 135.985 67.7151 137 59.2985 137Z" fill="white"/>
<path d="M197.244 137C185.512 137 175.31 135.097 166.638 131.292C157.966 127.486 151.208 121.778 146.362 114.167C141.516 106.429 138.838 96.788 138.328 85.2444C138.2 79.7898 138.137 74.3352 138.137 68.8806C138.137 63.4259 138.2 57.9079 138.328 52.3264C138.838 40.9097 141.516 31.3324 146.362 23.5944C151.335 15.7296 158.158 9.83102 166.829 5.89861C175.501 1.9662 185.639 0 197.244 0C208.721 0 218.795 1.9662 227.467 5.89861C236.266 9.83102 243.152 15.7296 248.126 23.5944C253.099 31.3324 255.777 40.9097 256.16 52.3264C256.415 57.9079 256.542 63.4259 256.542 68.8806C256.542 74.3352 256.415 79.7898 256.16 85.2444C255.65 96.788 252.972 106.429 248.126 114.167C243.28 121.778 236.521 127.486 227.849 131.292C219.178 135.097 208.976 137 197.244 137ZM197.244 109.6C204.003 109.6 209.486 107.57 213.694 103.511C218.03 99.4519 220.326 92.9824 220.581 84.1028C220.836 78.5213 220.963 73.257 220.963 68.3097C220.963 63.3625 220.836 58.225 220.581 52.8972C220.326 46.9352 219.178 42.1148 217.137 38.4361C215.225 34.6306 212.547 31.8398 209.104 30.0639C205.66 28.288 201.707 27.4 197.244 27.4C192.908 27.4 189.019 28.288 185.575 30.0639C182.132 31.8398 179.39 34.6306 177.35 38.4361C175.31 42.1148 174.162 46.9352 173.907 52.8972C173.779 58.225 173.716 63.3625 173.716 68.3097C173.716 73.257 173.779 78.5213 173.907 84.1028C174.29 92.9824 176.585 99.4519 180.793 103.511C185.002 107.57 190.485 109.6 197.244 109.6Z" fill="white"/>
<path d="M287.323 135.097C285.92 135.097 284.772 134.653 283.88 133.765C282.987 132.877 282.541 131.736 282.541 130.34V6.65973C282.541 5.26435 282.987 4.12268 283.88 3.23473C284.772 2.34676 285.92 1.90278 287.323 1.90278H312.573C313.848 1.90278 314.932 2.34676 315.824 3.23473C316.845 4.12268 317.355 5.26435 317.355 6.65973V106.365H375.123C376.526 106.365 377.673 106.873 378.566 107.888C379.586 108.775 380.096 109.917 380.096 111.312V130.34C380.096 131.736 379.586 132.877 378.566 133.765C377.673 134.653 376.526 135.097 375.123 135.097H287.323Z" fill="white"/>
<path d="M453.716 137C441.984 137 431.782 135.097 423.11 131.292C414.439 127.486 407.68 121.778 402.834 114.167C397.988 106.429 395.31 96.788 394.8 85.2444C394.672 79.7898 394.609 74.3352 394.609 68.8806C394.609 63.4259 394.672 57.9079 394.8 52.3264C395.31 40.9097 397.988 31.3324 402.834 23.5944C407.807 15.7296 414.63 9.83102 423.301 5.89861C431.973 1.9662 442.111 0 453.716 0C465.193 0 475.267 1.9662 483.939 5.89861C492.738 9.83102 499.624 15.7296 504.598 23.5944C509.571 31.3324 512.249 40.9097 512.632 52.3264C512.887 57.9079 513.014 63.4259 513.014 68.8806C513.014 74.3352 512.887 79.7898 512.632 85.2444C512.122 96.788 509.444 106.429 504.598 114.167C499.752 121.778 492.993 127.486 484.322 131.292C475.65 135.097 465.448 137 453.716 137ZM453.716 109.6C460.475 109.6 465.958 107.57 470.166 103.511C474.502 99.4519 476.798 92.9824 477.053 84.1028C477.308 78.5213 477.435 73.257 477.435 68.3097C477.435 63.3625 477.308 58.225 477.053 52.8972C476.798 46.9352 475.65 42.1148 473.61 38.4361C471.697 34.6306 469.019 31.8398 465.576 30.0639C462.132 28.288 458.179 27.4 453.716 27.4C449.38 27.4 445.491 28.288 442.047 30.0639C438.604 31.8398 435.863 34.6306 433.822 38.4361C431.782 42.1148 430.634 46.9352 430.379 52.8972C430.252 58.225 430.188 63.3625 430.188 68.3097C430.188 73.257 430.252 78.5213 430.379 84.1028C430.762 92.9824 433.057 99.4519 437.265 103.511C441.474 107.57 446.957 109.6 453.716 109.6Z" fill="white"/>
<path d="M588.938 137C576.186 137 565.602 135.224 557.185 131.672C548.768 127.994 542.392 123.237 538.056 117.401C533.721 111.566 531.425 105.35 531.17 98.7542C531.17 97.7394 531.553 96.8514 532.318 96.0903C533.21 95.2023 534.231 94.7583 535.378 94.7583H559.48C561.266 94.7583 562.605 95.0755 563.497 95.7097C564.518 96.344 565.41 97.1685 566.175 98.1833C567.195 100.086 568.598 101.925 570.384 103.701C572.297 105.477 574.719 106.936 577.652 108.078C580.713 109.093 584.475 109.6 588.938 109.6C596.335 109.6 601.882 108.458 605.58 106.175C609.406 103.892 611.319 100.784 611.319 96.8514C611.319 94.0607 610.299 91.7773 608.258 90.0014C606.218 88.0986 602.902 86.4495 598.311 85.0542C593.848 83.5319 587.854 82.0097 580.331 80.4875C570.639 78.4579 562.35 75.8574 555.463 72.6861C548.705 69.388 543.54 65.1384 539.969 59.9375C536.399 54.6097 534.613 48.0134 534.613 40.1486C534.613 32.4107 536.781 25.4972 541.117 19.4083C545.58 13.3194 551.765 8.5625 559.672 5.1375C567.578 1.7125 576.951 0 587.791 0C596.59 0 604.305 1.14167 610.936 3.425C617.695 5.70834 623.37 8.75278 627.961 12.5583C632.551 16.3639 635.995 20.4231 638.29 24.7361C640.713 28.9222 641.988 33.0449 642.116 37.1042C642.116 38.119 641.733 39.0704 640.968 39.9583C640.203 40.7194 639.246 41.1 638.099 41.1H612.849C611.446 41.1 610.235 40.8463 609.215 40.3389C608.194 39.8315 607.302 39.0069 606.537 37.8653C605.771 35.0745 603.731 32.6643 600.415 30.6347C597.227 28.4782 593.019 27.4 587.791 27.4C582.18 27.4 577.78 28.4148 574.592 30.4444C571.531 32.3472 570.001 35.3282 570.001 39.3875C570.001 41.9245 570.83 44.1444 572.488 46.0472C574.273 47.95 577.142 49.5991 581.096 50.9944C585.176 52.3898 590.724 53.8486 597.737 55.3708C609.342 57.5273 618.715 60.2546 625.856 63.5528C632.998 66.7241 638.226 70.9102 641.542 76.1111C644.857 81.1852 646.515 87.5912 646.515 95.3292C646.515 103.955 644.029 111.439 639.055 117.782C634.209 123.998 627.451 128.755 618.779 132.053C610.107 135.351 600.16 137 588.938 137Z" fill="white"/>
<path d="M719.416 137C706.664 137 696.079 135.224 687.663 131.672C679.246 127.994 672.87 123.237 668.534 117.401C664.198 111.566 661.903 105.35 661.648 98.7542C661.648 97.7394 662.03 96.8514 662.795 96.0903C663.688 95.2023 664.708 94.7583 665.856 94.7583H689.958C691.743 94.7583 693.082 95.0755 693.975 95.7097C694.995 96.344 695.888 97.1685 696.653 98.1833C697.673 100.086 699.076 101.925 700.861 103.701C702.774 105.477 705.197 106.936 708.13 108.078C711.191 109.093 714.953 109.6 719.416 109.6C726.812 109.6 732.36 108.458 736.058 106.175C739.884 103.892 741.796 100.784 741.796 96.8514C741.796 94.0607 740.776 91.7773 738.736 90.0014C736.695 88.0986 733.38 86.4495 728.789 85.0542C724.326 83.5319 718.332 82.0097 710.808 80.4875C701.116 78.4579 692.827 75.8574 685.941 72.6861C679.182 69.388 674.018 65.1384 670.447 59.9375C666.876 54.6097 665.091 48.0134 665.091 40.1486C665.091 32.4107 667.259 25.4972 671.595 19.4083C676.058 13.3194 682.243 8.5625 690.149 5.1375C698.056 1.7125 707.429 0 718.268 0C727.067 0 734.783 1.14167 741.414 3.425C748.173 5.70834 753.847 8.75278 758.438 12.5583C763.029 16.3639 766.472 20.4231 768.768 24.7361C771.191 28.9222 772.466 33.0449 772.593 37.1042C772.593 38.119 772.211 39.0704 771.446 39.9583C770.681 40.7194 769.724 41.1 768.576 41.1H743.327C741.924 41.1 740.712 40.8463 739.692 40.3389C738.672 39.8315 737.779 39.0069 737.014 37.8653C736.249 35.0745 734.209 32.6643 730.893 30.6347C727.705 28.4782 723.497 27.4 718.268 27.4C712.657 27.4 708.258 28.4148 705.07 30.4444C702.009 32.3472 700.479 35.3282 700.479 39.3875C700.479 41.9245 701.308 44.1444 702.965 46.0472C704.751 47.95 707.62 49.5991 711.573 50.9944C715.654 52.3898 721.201 53.8486 728.215 55.3708C739.82 57.5273 749.193 60.2546 756.334 63.5528C763.475 66.7241 768.704 70.9102 772.02 76.1111C775.335 81.1852 776.993 87.5912 776.993 95.3292C776.993 103.955 774.506 111.439 769.533 117.782C764.687 123.998 757.928 128.755 749.257 132.053C740.585 135.351 730.638 137 719.416 137Z" fill="white"/>
<path d="M804.75 135.097C803.347 135.097 802.2 134.653 801.307 133.765C800.414 132.877 799.968 131.736 799.968 130.34V6.65973C799.968 5.26435 800.414 4.12268 801.307 3.23473C802.2 2.34676 803.347 1.90278 804.75 1.90278H894.081C895.483 1.90278 896.631 2.34676 897.524 3.23473C898.416 4.12268 898.863 5.26435 898.863 6.65973V24.5458C898.863 25.9412 898.416 27.0829 897.524 27.9708C896.631 28.8588 895.483 29.3028 894.081 29.3028H833.061V54.9903H889.872C891.275 54.9903 892.423 55.4977 893.315 56.5125C894.208 57.4005 894.654 58.5421 894.654 59.9375V76.4917C894.654 77.7602 894.208 78.9019 893.315 79.9167C892.423 80.8046 891.275 81.2486 889.872 81.2486H833.061V107.697H895.611C897.014 107.697 898.161 108.141 899.054 109.029C899.947 109.917 900.393 111.059 900.393 112.454V130.34C900.393 131.736 899.947 132.877 899.054 133.765C898.161 134.653 897.014 135.097 895.611 135.097H804.75Z" fill="white"/>
<path d="M982.009 137C970.532 137 960.458 135.161 951.786 131.482C943.242 127.676 936.611 121.905 931.892 114.167C927.174 106.302 924.815 96.344 924.815 84.2931V6.65973C924.815 5.26435 925.261 4.12268 926.154 3.23473C927.047 2.34676 928.194 1.90278 929.597 1.90278H954.273C955.676 1.90278 956.823 2.34676 957.716 3.23473C958.609 4.12268 959.055 5.26435 959.055 6.65973V84.1028C959.055 92.3482 961.032 98.5639 964.985 102.75C969.066 106.809 974.74 108.839 982.009 108.839C989.151 108.839 994.698 106.809 998.651 102.75C1002.73 98.5639 1004.77 92.3482 1004.77 84.1028V6.65973C1004.77 5.26435 1005.22 4.12268 1006.11 3.23473C1007.13 2.34676 1008.28 1.90278 1009.55 1.90278H1034.42C1035.7 1.90278 1036.78 2.34676 1037.67 3.23473C1038.69 4.12268 1039.2 5.26435 1039.2 6.65973V84.2931C1039.2 96.344 1036.84 106.302 1032.13 114.167C1027.41 121.905 1020.78 127.676 1012.23 131.482C1003.69 135.161 993.614 137 982.009 137Z" fill="white"/>
<path d="M1073.18 135.097C1071.9 135.097 1070.75 134.653 1069.73 133.765C1068.84 132.877 1068.4 131.736 1068.4 130.34V6.65973C1068.4 5.26435 1068.84 4.12268 1069.73 3.23473C1070.75 2.34676 1071.9 1.90278 1073.18 1.90278H1093.84C1095.88 1.90278 1097.41 2.47361 1098.43 3.61528C1099.58 4.63009 1100.28 5.45463 1100.53 6.08889L1134.2 66.2167L1167.86 6.08889C1168.25 5.45463 1168.88 4.63009 1169.78 3.61528C1170.8 2.47361 1172.39 1.90278 1174.56 1.90278H1195.03C1196.43 1.90278 1197.58 2.34676 1198.47 3.23473C1199.49 4.12268 1200 5.26435 1200 6.65973V130.34C1200 131.736 1199.49 132.877 1198.47 133.765C1197.58 134.653 1196.43 135.097 1195.03 135.097H1172.26C1170.86 135.097 1169.65 134.653 1168.63 133.765C1167.74 132.877 1167.29 131.736 1167.29 130.34V58.9861L1145.67 98.7542C1145.16 99.8958 1144.4 100.911 1143.38 101.799C1142.36 102.687 1140.96 103.131 1139.17 103.131H1129.22C1127.44 103.131 1126.04 102.687 1125.02 101.799C1124 100.911 1123.17 99.8958 1122.53 98.7542L1100.91 58.9861V130.34C1100.91 131.736 1100.47 132.877 1099.58 133.765C1098.68 134.653 1097.53 135.097 1096.13 135.097H1073.18Z" fill="white"/>
</svg>
