<svg width="24" height="25" viewBox="0 0 24 25" fill="none" xmlns="http://www.w3.org/2000/svg">
<g clip-path="url(#clip0_390_726)">
<path d="M22.118 11.7602V13.6813C22.118 14.199 22.5375 14.6187 23.0552 14.6187C23.5728 14.6187 23.9923 14.199 23.9923 13.6813V7.96625C23.9923 5.89917 22.3107 4.21735 20.2436 4.21735H16.2101V2.99548C16.2101 1.57532 15.0547 0.419922 13.6346 0.419922H10.3577C8.93756 0.419922 7.78217 1.57532 7.78217 2.99548V4.21735H3.74872C1.68164 4.21735 0 5.89899 0 7.96606V18.8845C0 20.9515 1.68164 22.6334 3.74872 22.6334H11.6682C12.1859 22.6334 12.6053 22.2137 12.6053 21.696C12.6053 21.1786 12.1859 20.7589 11.6682 20.7589H3.74872C2.71527 20.7589 1.87445 19.9181 1.87445 18.8845V11.7602H11.1059V13.1677C11.1059 13.6852 11.5254 14.1049 12.043 14.1049C12.5607 14.1049 12.9802 13.6852 12.9802 13.1677V11.7602H22.118ZM9.65662 2.99548C9.65662 2.60895 9.97119 2.29437 10.3577 2.29437H13.6346C14.0211 2.29437 14.3357 2.60876 14.3357 2.99548V4.21735H9.65662V2.99548ZM1.87445 7.96625C1.87445 6.93262 2.71527 6.0918 3.74872 6.0918H20.2436C21.277 6.0918 22.118 6.93262 22.118 7.96625V9.88574H1.87445V7.96625ZM23.7255 22.8124L21.5665 20.6534C21.975 20.0042 22.2116 19.2364 22.2116 18.4142C22.2116 16.0888 20.3198 14.1968 17.9943 14.1968C15.6689 14.1968 13.7769 16.0888 13.7769 18.4142C13.7769 20.7397 15.6689 22.6317 17.9943 22.6317C18.8203 22.6317 19.5916 22.3928 20.2429 21.9806L22.4 24.1378C22.5831 24.3209 22.823 24.4124 23.0629 24.4124C23.3027 24.4124 23.5424 24.3209 23.7255 24.1378C24.0916 23.7717 24.0916 23.1785 23.7255 22.8124ZM15.6513 18.4142C15.6513 17.1223 16.7023 16.0712 17.9943 16.0712C19.2861 16.0712 20.3373 17.1223 20.3373 18.4142C20.3373 19.7062 19.2861 20.7573 17.9943 20.7573C16.7023 20.7573 15.6513 19.7061 15.6513 18.4142Z" fill="white"/>
</g>
<defs>
<clipPath id="clip0_390_726">
<rect width="24" height="24" fill="white" transform="translate(0 0.419922)"/>
</clipPath>
</defs>
</svg>
