<svg width="233" height="60" viewBox="0 0 233 60" fill="none" xmlns="http://www.w3.org/2000/svg">
<path d="M22.142 20.4157C21.4745 19.7483 20.3747 19.7882 19.8244 20.5551C17.4182 23.9082 16 28.017 16 32.4513C16 36.9392 17.4527 41.0949 19.912 44.4702C20.4204 45.168 21.4258 45.2046 22.0363 44.5941C22.653 43.9774 23.6631 44.0292 24.2803 44.6453C24.3569 44.7218 24.4343 44.7976 24.5124 44.8727C25.0312 45.3715 25.8484 45.3295 26.3573 44.8206C26.9449 44.233 26.8863 43.2682 26.2965 42.6828C26.2405 42.6271 26.1848 42.571 26.1296 42.5144C25.5983 41.9694 24.7143 41.9161 24.1761 42.4544C23.6445 42.9859 22.7673 42.9474 22.3354 42.3321C20.3707 39.5335 19.2154 36.1245 19.2154 32.4513C19.2154 28.805 20.3539 25.4203 22.2923 22.6336C22.7698 21.9471 22.7333 21.0071 22.142 20.4157Z" fill="white"/>
<path d="M48.6408 20.2759C49.2454 20.8811 50.2409 20.937 50.8458 20.332L50.8571 20.3209L50.9564 20.2215L50.968 20.2099C51.5504 19.6274 51.5912 18.69 51.013 18.1033C50.6015 17.6858 50.1723 17.2859 49.7262 16.9042C46.151 13.8481 41.5132 12 36.4513 12C32.0169 12 27.908 13.4183 24.5548 15.8245C23.7881 16.3748 23.7482 17.4745 24.4155 18.1418C25.0069 18.7332 25.9471 18.7696 26.6336 18.2918C29.4203 16.3527 32.805 15.2154 36.4513 15.2154C40.6267 15.2154 44.4591 16.7067 47.4448 19.1856C47.856 19.5267 48.2508 19.8864 48.6283 20.2635L48.6345 20.2697L48.6408 20.2759Z" fill="white"/>
<path d="M48.6827 46.9564C49.2716 47.5454 50.2197 47.5866 50.8125 47.0014C50.8395 46.9747 50.8665 46.948 50.8934 46.9211C50.8981 46.9166 50.9027 46.912 50.9073 46.9073C50.912 46.9027 50.9165 46.8981 50.9211 46.8934C50.9479 46.8665 50.9747 46.8396 51.0014 46.8125C51.5866 46.2197 51.5454 45.2717 50.9564 44.6827L50.8663 44.5926C50.8649 44.5912 50.8634 44.5897 50.862 44.5883L50.857 44.5833L47.719 41.4453C49.6941 38.9786 50.8746 35.8505 50.8746 32.4514C50.8746 29.7051 50.104 27.1378 48.7663 24.9512C48.2585 24.121 47.1172 24.0608 46.4291 24.749C45.8548 25.3233 45.8019 26.2266 46.2032 26.9327C47.13 28.5632 47.6592 30.4473 47.6592 32.4514C47.6592 34.9609 46.8294 37.2836 45.4284 39.1547L43.0704 36.7967C43.8926 35.5488 44.3719 34.056 44.3719 32.4514C44.3719 31.599 44.2367 30.7786 43.9866 30.0096C43.6485 28.9699 42.3462 28.8318 41.5731 29.6049C41.0578 30.1202 40.9538 30.9007 41.0827 31.6179C41.1312 31.8884 41.1565 32.167 41.1565 32.4514C41.1565 33.1618 40.9988 33.8355 40.714 34.4403C40.2486 35.4401 39.4401 36.2486 38.4418 36.7156C37.837 36.9988 37.1633 37.1581 36.4514 37.1581C36.1653 37.1581 35.8857 37.1324 35.6142 37.0832C34.8982 36.9536 34.1197 37.0583 33.6051 37.5729C32.8311 38.3469 32.9696 39.6505 34.0106 39.9886C34.7798 40.2384 35.6003 40.3734 36.4514 40.3734C38.0545 40.3734 39.5488 39.8942 40.7967 39.0704L43.1547 41.4284C41.2836 42.8294 38.9624 43.6593 36.4514 43.6593C34.4461 43.6593 32.5628 43.13 30.9326 42.2033C30.2266 41.8019 29.3233 41.8548 28.749 42.429C28.0609 43.1172 28.1211 44.2585 28.9514 44.7662C31.1377 46.1032 33.7066 46.8746 36.4514 46.8746C39.849 46.8746 42.9786 45.6926 45.4452 43.719L48.5789 46.8527C48.5804 46.8541 48.5818 46.8556 48.5833 46.857L48.5883 46.862L48.6827 46.9564Z" fill="white"/>
<path d="M27.4591 21.1853C29.9257 19.2102 33.0538 18.0297 36.4514 18.0297C39.1976 18.0297 41.767 18.8002 43.9535 20.1379C44.7836 20.6458 44.8436 21.7869 44.1555 22.4751C43.5811 23.0495 42.6776 23.1023 41.9714 22.701C40.3408 21.7743 38.4566 21.245 36.4514 21.245C33.9403 21.245 31.6207 22.0749 29.7496 23.4759L32.1058 25.8323C33.3537 25.0101 34.8483 24.5308 36.4514 24.5308C37.3034 24.5308 38.1247 24.6662 38.8946 24.9167C39.9348 25.2552 40.0725 26.558 39.2991 27.3315C38.7846 27.846 38.006 27.951 37.29 27.8213C37.0177 27.772 36.7374 27.7462 36.4514 27.7462C35.7409 27.7462 35.0672 27.9054 34.4624 28.1887C33.4641 28.6557 32.6557 29.4641 32.1887 30.4624C31.9054 31.0672 31.7462 31.7409 31.7462 32.4514C31.7462 32.7374 31.772 33.0177 31.8213 33.2899C31.951 34.006 31.8459 34.7846 31.3314 35.2992C30.5574 36.0731 29.2538 35.9346 28.9159 34.8936C28.666 34.1238 28.5308 33.3027 28.5308 32.4514C28.5308 30.8484 29.01 29.3541 29.8321 28.1063C28.5888 26.863 26.4955 27.0178 25.9008 28.6724C25.4763 29.8535 25.245 31.1258 25.245 32.4514C25.245 34.3853 25.7373 36.2065 26.6035 37.7963C27.0114 38.5449 28.0154 38.6149 28.6182 38.0121L28.6875 37.9429C29.2785 37.3518 30.2626 37.4594 30.8536 38.0505C31.4447 38.6415 31.5523 39.6255 30.9612 40.2166L30.7249 40.4529C30.165 41.0128 29.2695 41.0848 28.6981 40.5366C28.6499 40.4903 28.602 40.4436 28.5546 40.3965C27.9387 39.7842 26.9258 39.7048 26.3117 40.3189C25.7108 40.9198 24.7153 40.8671 24.2605 40.1493C22.8483 37.9207 22.0297 35.2788 22.0297 32.4514C22.0297 29.0539 23.2117 25.9274 25.1852 23.4592C25.8558 22.6202 26.6185 21.8559 27.4591 21.1853Z" fill="white"/>
<path d="M69.5063 36.91C68.7863 36.91 68.0996 36.8233 67.4463 36.65C66.8063 36.4633 66.2329 36.1833 65.7263 35.81C65.2196 35.4366 64.8129 34.9766 64.5063 34.43C64.2129 33.8833 64.0596 33.2366 64.0463 32.49C64.0463 32.37 64.0863 32.27 64.1663 32.19C64.2463 32.0966 64.3463 32.05 64.4663 32.05H66.3663C66.5396 32.05 66.6663 32.0966 66.7463 32.19C66.8396 32.2833 66.9129 32.41 66.9663 32.57C67.0329 33.05 67.1863 33.4433 67.4263 33.75C67.6663 34.0433 67.9663 34.2633 68.3263 34.41C68.6996 34.5433 69.1129 34.61 69.5663 34.61C70.4063 34.61 71.0463 34.3366 71.4863 33.79C71.9396 33.2433 72.1663 32.4833 72.1663 31.51V25.07H65.3863C65.2396 25.07 65.1196 25.0233 65.0263 24.93C64.9463 24.8366 64.9063 24.7233 64.9063 24.59V23.19C64.9063 23.0566 64.9463 22.9433 65.0263 22.85C65.1196 22.7566 65.2396 22.71 65.3863 22.71H74.5263C74.6729 22.71 74.7929 22.7566 74.8863 22.85C74.9796 22.9433 75.0263 23.0633 75.0263 23.21V31.59C75.0263 32.6966 74.7929 33.65 74.3263 34.45C73.8729 35.25 73.2329 35.8633 72.4063 36.29C71.5929 36.7033 70.6263 36.91 69.5063 36.91ZM82.4531 36.91C81.3865 36.91 80.4865 36.7233 79.7531 36.35C79.0331 35.9766 78.4798 35.45 78.0931 34.77C77.7198 34.09 77.5065 33.2966 77.4531 32.39C77.4398 32.15 77.4331 31.8566 77.4331 31.51C77.4331 31.1633 77.4398 30.87 77.4531 30.63C77.5065 29.71 77.7265 28.9166 78.1131 28.25C78.5131 27.57 79.0731 27.0433 79.7931 26.67C80.5265 26.2966 81.4131 26.11 82.4531 26.11C83.4931 26.11 84.3731 26.2966 85.0931 26.67C85.8265 27.0433 86.3865 27.57 86.7731 28.25C87.1731 28.9166 87.3998 29.71 87.4531 30.63C87.4665 30.87 87.4731 31.1633 87.4731 31.51C87.4731 31.8566 87.4665 32.15 87.4531 32.39C87.3998 33.2966 87.1798 34.09 86.7931 34.77C86.4198 35.45 85.8665 35.9766 85.1331 36.35C84.4131 36.7233 83.5198 36.91 82.4531 36.91ZM82.4531 34.93C83.1598 34.93 83.7065 34.71 84.0931 34.27C84.4798 33.8166 84.6931 33.1566 84.7331 32.29C84.7465 32.09 84.7531 31.83 84.7531 31.51C84.7531 31.19 84.7465 30.93 84.7331 30.73C84.6931 29.8766 84.4798 29.2233 84.0931 28.77C83.7065 28.3166 83.1598 28.09 82.4531 28.09C81.7465 28.09 81.1998 28.3166 80.8131 28.77C80.4265 29.2233 80.2131 29.8766 80.1731 30.73C80.1598 30.93 80.1531 31.19 80.1531 31.51C80.1531 31.83 80.1598 32.09 80.1731 32.29C80.2131 33.1566 80.4265 33.8166 80.8131 34.27C81.1998 34.71 81.7465 34.93 82.4531 34.93ZM95.5091 36.91C94.7357 36.91 94.0891 36.7766 93.5691 36.51C93.0624 36.2433 92.6424 35.9033 92.3091 35.49V36.23C92.3091 36.3633 92.2624 36.4766 92.1691 36.57C92.0891 36.6633 91.9757 36.71 91.8291 36.71H90.2491C90.1157 36.71 90.0024 36.6633 89.9091 36.57C89.8157 36.4766 89.7691 36.3633 89.7691 36.23V22.99C89.7691 22.8566 89.8157 22.7433 89.9091 22.65C90.0024 22.5566 90.1157 22.51 90.2491 22.51H91.9491C92.0957 22.51 92.2091 22.5566 92.2891 22.65C92.3824 22.7433 92.4291 22.8566 92.4291 22.99V27.43C92.7624 27.0433 93.1757 26.73 93.6691 26.49C94.1757 26.2366 94.7891 26.11 95.5091 26.11C96.2157 26.11 96.8291 26.23 97.3491 26.47C97.8691 26.71 98.3024 27.05 98.6491 27.49C99.0091 27.9166 99.2824 28.4166 99.4691 28.99C99.6558 29.5633 99.7558 30.1833 99.7691 30.85C99.7824 31.09 99.7891 31.31 99.7891 31.51C99.7891 31.6966 99.7824 31.91 99.7691 32.15C99.7424 32.8433 99.6357 33.4833 99.4491 34.07C99.2624 34.6433 98.9957 35.1433 98.6491 35.57C98.3024 35.9966 97.8691 36.33 97.3491 36.57C96.8291 36.7966 96.2157 36.91 95.5091 36.91ZM94.7691 34.77C95.3424 34.77 95.7891 34.65 96.1091 34.41C96.4291 34.1566 96.6557 33.83 96.7891 33.43C96.9357 33.03 97.0224 32.59 97.0491 32.11C97.0758 31.71 97.0758 31.31 97.0491 30.91C97.0224 30.43 96.9357 29.99 96.7891 29.59C96.6557 29.19 96.4291 28.87 96.1091 28.63C95.7891 28.3766 95.3424 28.25 94.7691 28.25C94.2357 28.25 93.8024 28.37 93.4691 28.61C93.1357 28.85 92.8824 29.1566 92.7091 29.53C92.5357 29.89 92.4424 30.27 92.4291 30.67C92.4157 30.91 92.4091 31.17 92.4091 31.45C92.4091 31.7166 92.4157 31.97 92.4291 32.21C92.4557 32.6233 92.5424 33.03 92.6891 33.43C92.8491 33.8166 93.0957 34.1366 93.4291 34.39C93.7757 34.6433 94.2224 34.77 94.7691 34.77ZM105.558 36.71C105.451 36.71 105.351 36.67 105.258 36.59C105.178 36.51 105.138 36.41 105.138 36.29C105.138 36.2366 105.151 36.1766 105.178 36.11L109.998 23.21C110.038 23.0766 110.111 22.9633 110.218 22.87C110.338 22.7633 110.498 22.71 110.698 22.71H112.878C113.078 22.71 113.231 22.7633 113.338 22.87C113.444 22.9633 113.524 23.0766 113.578 23.21L118.398 36.11C118.411 36.1766 118.418 36.2366 118.418 36.29C118.418 36.41 118.378 36.51 118.298 36.59C118.218 36.67 118.124 36.71 118.018 36.71H116.278C116.091 36.71 115.951 36.67 115.858 36.59C115.778 36.4966 115.724 36.41 115.698 36.33L114.758 33.89H108.818L107.878 36.33C107.851 36.41 107.791 36.4966 107.698 36.59C107.618 36.67 107.484 36.71 107.298 36.71H105.558ZM109.518 31.59H114.058L111.778 25.41L109.518 31.59ZM120.605 40.51C120.472 40.51 120.358 40.4633 120.265 40.37C120.172 40.2766 120.125 40.1633 120.125 40.03V26.79C120.125 26.6566 120.172 26.5433 120.265 26.45C120.358 26.3566 120.472 26.31 120.605 26.31H122.185C122.332 26.31 122.445 26.3566 122.525 26.45C122.618 26.5433 122.665 26.6566 122.665 26.79V27.59C122.985 27.1633 123.405 26.81 123.925 26.53C124.445 26.25 125.092 26.11 125.865 26.11C126.572 26.11 127.185 26.2233 127.705 26.45C128.225 26.6766 128.658 27.0033 129.005 27.43C129.352 27.8433 129.618 28.3366 129.805 28.91C129.992 29.4833 130.098 30.1166 130.125 30.81C130.138 31.0366 130.145 31.27 130.145 31.51C130.145 31.75 130.138 31.99 130.125 32.23C130.112 32.8966 130.012 33.5166 129.825 34.09C129.638 34.65 129.365 35.1433 129.005 35.57C128.658 35.9833 128.225 36.31 127.705 36.55C127.185 36.79 126.572 36.91 125.865 36.91C125.145 36.91 124.532 36.7833 124.025 36.53C123.518 36.2633 123.105 35.9166 122.785 35.49V40.03C122.785 40.1633 122.738 40.2766 122.645 40.37C122.565 40.4633 122.452 40.51 122.305 40.51H120.605ZM125.125 34.77C125.698 34.77 126.145 34.65 126.465 34.41C126.785 34.1566 127.012 33.83 127.145 33.43C127.292 33.03 127.378 32.59 127.405 32.11C127.432 31.71 127.432 31.31 127.405 30.91C127.378 30.43 127.292 29.99 127.145 29.59C127.012 29.19 126.785 28.87 126.465 28.63C126.145 28.3766 125.698 28.25 125.125 28.25C124.578 28.25 124.132 28.3766 123.785 28.63C123.452 28.8833 123.205 29.21 123.045 29.61C122.898 29.9966 122.812 30.3966 122.785 30.81C122.772 31.05 122.765 31.3033 122.765 31.57C122.765 31.8366 122.772 32.0966 122.785 32.35C122.798 32.75 122.892 33.1366 123.065 33.51C123.238 33.87 123.492 34.17 123.825 34.41C124.158 34.65 124.592 34.77 125.125 34.77ZM132.95 40.51C132.817 40.51 132.703 40.4633 132.61 40.37C132.517 40.2766 132.47 40.1633 132.47 40.03V26.79C132.47 26.6566 132.517 26.5433 132.61 26.45C132.703 26.3566 132.817 26.31 132.95 26.31H134.53C134.677 26.31 134.79 26.3566 134.87 26.45C134.963 26.5433 135.01 26.6566 135.01 26.79V27.59C135.33 27.1633 135.75 26.81 136.27 26.53C136.79 26.25 137.437 26.11 138.21 26.11C138.917 26.11 139.53 26.2233 140.05 26.45C140.57 26.6766 141.003 27.0033 141.35 27.43C141.697 27.8433 141.963 28.3366 142.15 28.91C142.337 29.4833 142.443 30.1166 142.47 30.81C142.483 31.0366 142.49 31.27 142.49 31.51C142.49 31.75 142.483 31.99 142.47 32.23C142.457 32.8966 142.357 33.5166 142.17 34.09C141.983 34.65 141.71 35.1433 141.35 35.57C141.003 35.9833 140.57 36.31 140.05 36.55C139.53 36.79 138.917 36.91 138.21 36.91C137.49 36.91 136.877 36.7833 136.37 36.53C135.863 36.2633 135.45 35.9166 135.13 35.49V40.03C135.13 40.1633 135.083 40.2766 134.99 40.37C134.91 40.4633 134.797 40.51 134.65 40.51H132.95ZM137.47 34.77C138.043 34.77 138.49 34.65 138.81 34.41C139.13 34.1566 139.357 33.83 139.49 33.43C139.637 33.03 139.723 32.59 139.75 32.11C139.777 31.71 139.777 31.31 139.75 30.91C139.723 30.43 139.637 29.99 139.49 29.59C139.357 29.19 139.13 28.87 138.81 28.63C138.49 28.3766 138.043 28.25 137.47 28.25C136.923 28.25 136.477 28.3766 136.13 28.63C135.797 28.8833 135.55 29.21 135.39 29.61C135.243 29.9966 135.157 30.3966 135.13 30.81C135.117 31.05 135.11 31.3033 135.11 31.57C135.11 31.8366 135.117 32.0966 135.13 32.35C135.143 32.75 135.237 33.1366 135.41 33.51C135.583 33.87 135.837 34.17 136.17 34.41C136.503 34.65 136.937 34.77 137.47 34.77ZM145.295 36.71C145.162 36.71 145.049 36.6633 144.955 36.57C144.862 36.4766 144.815 36.3633 144.815 36.23V22.99C144.815 22.8566 144.862 22.7433 144.955 22.65C145.049 22.5566 145.162 22.51 145.295 22.51H146.955C147.089 22.51 147.202 22.5566 147.295 22.65C147.389 22.7433 147.435 22.8566 147.435 22.99V36.23C147.435 36.3633 147.389 36.4766 147.295 36.57C147.202 36.6633 147.089 36.71 146.955 36.71H145.295ZM151.058 36.71C150.925 36.71 150.811 36.6633 150.718 36.57C150.625 36.4766 150.578 36.3633 150.578 36.23V26.79C150.578 26.6566 150.625 26.5433 150.718 26.45C150.811 26.3566 150.925 26.31 151.058 26.31H152.718C152.865 26.31 152.978 26.3566 153.058 26.45C153.151 26.5433 153.198 26.6566 153.198 26.79V36.23C153.198 36.3633 153.151 36.4766 153.058 36.57C152.978 36.6633 152.865 36.71 152.718 36.71H151.058ZM150.978 24.59C150.831 24.59 150.711 24.55 150.618 24.47C150.538 24.3766 150.498 24.2566 150.498 24.11V22.67C150.498 22.5366 150.538 22.4233 150.618 22.33C150.711 22.2366 150.831 22.19 150.978 22.19H152.798C152.945 22.19 153.065 22.2366 153.158 22.33C153.251 22.4233 153.298 22.5366 153.298 22.67V24.11C153.298 24.2566 153.251 24.3766 153.158 24.47C153.065 24.55 152.945 24.59 152.798 24.59H150.978ZM160.47 36.91C159.51 36.91 158.663 36.73 157.93 36.37C157.21 36.01 156.643 35.49 156.23 34.81C155.83 34.1166 155.61 33.2833 155.57 32.31C155.557 32.11 155.55 31.85 155.55 31.53C155.55 31.1966 155.557 30.9233 155.57 30.71C155.61 29.7366 155.83 28.91 156.23 28.23C156.643 27.5366 157.21 27.01 157.93 26.65C158.663 26.29 159.51 26.11 160.47 26.11C161.323 26.11 162.05 26.23 162.65 26.47C163.25 26.71 163.743 27.01 164.13 27.37C164.517 27.73 164.803 28.11 164.99 28.51C165.19 28.8966 165.297 29.25 165.31 29.57C165.323 29.7166 165.277 29.8366 165.17 29.93C165.077 30.01 164.963 30.05 164.83 30.05H163.07C162.937 30.05 162.83 30.0166 162.75 29.95C162.683 29.8833 162.617 29.7833 162.55 29.65C162.35 29.1166 162.083 28.7433 161.75 28.53C161.43 28.3033 161.017 28.19 160.51 28.19C159.843 28.19 159.31 28.4033 158.91 28.83C158.523 29.2433 158.317 29.9033 158.29 30.81C158.263 31.3166 158.263 31.7833 158.29 32.21C158.317 33.13 158.523 33.7966 158.91 34.21C159.31 34.6233 159.843 34.83 160.51 34.83C161.03 34.83 161.45 34.7233 161.77 34.51C162.09 34.2833 162.35 33.9033 162.55 33.37C162.617 33.2366 162.683 33.1366 162.75 33.07C162.83 33.0033 162.937 32.97 163.07 32.97H164.83C164.963 32.97 165.077 33.0166 165.17 33.11C165.277 33.19 165.323 33.3033 165.31 33.45C165.297 33.69 165.23 33.9633 165.11 34.27C165.003 34.5633 164.823 34.87 164.57 35.19C164.33 35.4966 164.023 35.7833 163.65 36.05C163.277 36.3033 162.823 36.51 162.29 36.67C161.77 36.83 161.163 36.91 160.47 36.91ZM170.476 36.91C169.782 36.91 169.156 36.7766 168.596 36.51C168.036 36.23 167.589 35.8633 167.256 35.41C166.936 34.9433 166.776 34.4233 166.776 33.85C166.776 32.9166 167.149 32.1766 167.896 31.63C168.656 31.07 169.656 30.6966 170.896 30.51L173.636 30.11V29.69C173.636 29.13 173.496 28.6966 173.216 28.39C172.936 28.0833 172.456 27.93 171.776 27.93C171.296 27.93 170.902 28.03 170.596 28.23C170.302 28.4166 170.082 28.67 169.936 28.99C169.829 29.1633 169.676 29.25 169.476 29.25H167.896C167.749 29.25 167.636 29.21 167.556 29.13C167.489 29.05 167.456 28.9433 167.456 28.81C167.469 28.5966 167.556 28.3366 167.716 28.03C167.876 27.7233 168.129 27.43 168.476 27.15C168.822 26.8566 169.269 26.61 169.816 26.41C170.362 26.21 171.022 26.11 171.796 26.11C172.636 26.11 173.342 26.2166 173.916 26.43C174.502 26.63 174.969 26.9033 175.316 27.25C175.662 27.5966 175.916 28.0033 176.076 28.47C176.236 28.9366 176.316 29.43 176.316 29.95V36.23C176.316 36.3633 176.269 36.4766 176.176 36.57C176.082 36.6633 175.969 36.71 175.836 36.71H174.216C174.069 36.71 173.949 36.6633 173.856 36.57C173.776 36.4766 173.736 36.3633 173.736 36.23V35.45C173.562 35.7033 173.329 35.9433 173.036 36.17C172.742 36.3833 172.382 36.5633 171.956 36.71C171.542 36.8433 171.049 36.91 170.476 36.91ZM171.156 35.01C171.622 35.01 172.042 34.91 172.416 34.71C172.802 34.51 173.102 34.2033 173.316 33.79C173.542 33.3633 173.656 32.83 173.656 32.19V31.77L171.656 32.09C170.869 32.21 170.282 32.4033 169.896 32.67C169.509 32.9366 169.316 33.2633 169.316 33.65C169.316 33.9433 169.402 34.1966 169.576 34.41C169.762 34.61 169.996 34.7633 170.276 34.87C170.556 34.9633 170.849 35.01 171.156 35.01ZM183.544 36.71C182.744 36.71 182.07 36.57 181.524 36.29C180.977 36.01 180.57 35.5966 180.304 35.05C180.037 34.49 179.904 33.7966 179.904 32.97V28.43H178.324C178.19 28.43 178.077 28.3833 177.984 28.29C177.89 28.1966 177.844 28.0833 177.844 27.95V26.79C177.844 26.6566 177.89 26.5433 177.984 26.45C178.077 26.3566 178.19 26.31 178.324 26.31H179.904V22.99C179.904 22.8566 179.944 22.7433 180.024 22.65C180.117 22.5566 180.237 22.51 180.384 22.51H182.004C182.137 22.51 182.25 22.5566 182.344 22.65C182.437 22.7433 182.484 22.8566 182.484 22.99V26.31H184.984C185.117 26.31 185.23 26.3566 185.324 26.45C185.417 26.5433 185.464 26.6566 185.464 26.79V27.95C185.464 28.0833 185.417 28.1966 185.324 28.29C185.23 28.3833 185.117 28.43 184.984 28.43H182.484V32.77C182.484 33.3166 182.577 33.7433 182.764 34.05C182.964 34.3566 183.304 34.51 183.784 34.51H185.164C185.297 34.51 185.41 34.5566 185.504 34.65C185.597 34.7433 185.644 34.8566 185.644 34.99V36.23C185.644 36.3633 185.597 36.4766 185.504 36.57C185.41 36.6633 185.297 36.71 185.164 36.71H183.544ZM187.958 36.71C187.825 36.71 187.711 36.6633 187.618 36.57C187.525 36.4766 187.478 36.3633 187.478 36.23V26.79C187.478 26.6566 187.525 26.5433 187.618 26.45C187.711 26.3566 187.825 26.31 187.958 26.31H189.618C189.765 26.31 189.878 26.3566 189.958 26.45C190.051 26.5433 190.098 26.6566 190.098 26.79V36.23C190.098 36.3633 190.051 36.4766 189.958 36.57C189.878 36.6633 189.765 36.71 189.618 36.71H187.958ZM187.878 24.59C187.731 24.59 187.611 24.55 187.518 24.47C187.438 24.3766 187.398 24.2566 187.398 24.11V22.67C187.398 22.5366 187.438 22.4233 187.518 22.33C187.611 22.2366 187.731 22.19 187.878 22.19H189.698C189.845 22.19 189.965 22.2366 190.058 22.33C190.151 22.4233 190.198 22.5366 190.198 22.67V24.11C190.198 24.2566 190.151 24.3766 190.058 24.47C189.965 24.55 189.845 24.59 189.698 24.59H187.878ZM197.47 36.91C196.403 36.91 195.503 36.7233 194.77 36.35C194.05 35.9766 193.497 35.45 193.11 34.77C192.737 34.09 192.523 33.2966 192.47 32.39C192.457 32.15 192.45 31.8566 192.45 31.51C192.45 31.1633 192.457 30.87 192.47 30.63C192.523 29.71 192.743 28.9166 193.13 28.25C193.53 27.57 194.09 27.0433 194.81 26.67C195.543 26.2966 196.43 26.11 197.47 26.11C198.51 26.11 199.39 26.2966 200.11 26.67C200.843 27.0433 201.403 27.57 201.79 28.25C202.19 28.9166 202.417 29.71 202.47 30.63C202.483 30.87 202.49 31.1633 202.49 31.51C202.49 31.8566 202.483 32.15 202.47 32.39C202.417 33.2966 202.197 34.09 201.81 34.77C201.437 35.45 200.883 35.9766 200.15 36.35C199.43 36.7233 198.537 36.91 197.47 36.91ZM197.47 34.93C198.177 34.93 198.723 34.71 199.11 34.27C199.497 33.8166 199.71 33.1566 199.75 32.29C199.763 32.09 199.77 31.83 199.77 31.51C199.77 31.19 199.763 30.93 199.75 30.73C199.71 29.8766 199.497 29.2233 199.11 28.77C198.723 28.3166 198.177 28.09 197.47 28.09C196.763 28.09 196.217 28.3166 195.83 28.77C195.443 29.2233 195.23 29.8766 195.19 30.73C195.177 30.93 195.17 31.19 195.17 31.51C195.17 31.83 195.177 32.09 195.19 32.29C195.23 33.1566 195.443 33.8166 195.83 34.27C196.217 34.71 196.763 34.93 197.47 34.93ZM205.246 36.71C205.113 36.71 204.999 36.6633 204.906 36.57C204.813 36.4766 204.766 36.3633 204.766 36.23V26.79C204.766 26.6566 204.813 26.5433 204.906 26.45C204.999 26.3566 205.113 26.31 205.246 26.31H206.886C207.019 26.31 207.133 26.3566 207.226 26.45C207.319 26.5433 207.366 26.6566 207.366 26.79V27.61C207.713 27.1833 208.153 26.83 208.686 26.55C209.233 26.2566 209.906 26.11 210.706 26.11C211.519 26.11 212.226 26.2966 212.826 26.67C213.426 27.03 213.886 27.5433 214.206 28.21C214.539 28.8766 214.706 29.6766 214.706 30.61V36.23C214.706 36.3633 214.659 36.4766 214.566 36.57C214.473 36.6633 214.359 36.71 214.226 36.71H212.466C212.333 36.71 212.219 36.6633 212.126 36.57C212.033 36.4766 211.986 36.3633 211.986 36.23V30.73C211.986 29.9566 211.793 29.35 211.406 28.91C211.033 28.47 210.486 28.25 209.766 28.25C209.073 28.25 208.519 28.47 208.106 28.91C207.693 29.35 207.486 29.9566 207.486 30.73V36.23C207.486 36.3633 207.439 36.4766 207.346 36.57C207.253 36.6633 207.139 36.71 207.006 36.71H205.246Z" fill="white"/>
</svg>
