<svg width="18" height="10" viewBox="0 0 18 10" fill="none" xmlns="http://www.w3.org/2000/svg">
<path fill-rule="evenodd" clip-rule="evenodd" d="M15.6253 1.33733C15.9223 0.913209 16.5068 0.81015 16.931 1.10714C17.3551 1.40413 17.4581 1.98871 17.1612 2.41283L16.4532 1.9171C17.1611 2.41284 17.161 2.41298 17.1609 2.41315L17.1606 2.4136L17.1597 2.41495L17.1566 2.41933L17.1457 2.43475C17.1364 2.44794 17.1229 2.46689 17.1055 2.49122C17.0706 2.53987 17.0199 2.61006 16.9548 2.69872C16.8245 2.87597 16.6363 3.12747 16.4012 3.42855C15.9322 4.0293 15.2717 4.8342 14.5105 5.64275C13.7532 6.44701 12.8741 7.27862 11.9667 7.91577C11.085 8.53488 10.0485 9.06258 9.00036 9.06258C7.95239 9.06258 6.91602 8.53482 6.03442 7.91575C5.12709 7.27862 4.24801 6.44703 3.49069 5.64278C2.72934 4.83424 2.06877 4.02935 1.59969 3.42861C1.36461 3.12754 1.1763 2.87604 1.04605 2.6988C0.98089 2.61014 0.930182 2.53995 0.895325 2.4913C0.877895 2.46697 0.864422 2.44802 0.855082 2.43483L0.84419 2.41941L0.841108 2.41503L0.839844 2.41323C0.839726 2.41306 0.839624 2.41292 1.6075 1.87508L0.839624 2.41292C0.542584 1.98883 0.645577 1.40424 1.06966 1.1072C1.49369 0.810207 2.07817 0.913124 2.37525 1.33705C2.37529 1.33711 2.37521 1.33699 2.37525 1.33705L2.37718 1.33981L2.38522 1.35119C2.39263 1.36165 2.40411 1.37779 2.41948 1.39924C2.45022 1.44215 2.4965 1.50623 2.55694 1.58847C2.67786 1.75302 2.85512 1.98981 3.07754 2.27467C3.5235 2.84581 4.14579 3.60342 4.85575 4.35738C5.56974 5.11563 6.35042 5.84654 7.11193 6.38129C7.89917 6.93409 8.54072 7.18758 9.00036 7.18758C9.46032 7.18758 10.102 6.93403 10.8893 6.38127C11.6508 5.84654 12.4314 5.11565 13.1453 4.35741C13.8552 3.60346 14.4774 2.84586 14.9233 2.27474C15.1457 1.98988 15.3229 1.7531 15.4438 1.58855C15.5042 1.50631 15.5505 1.44223 15.5812 1.39932C15.5966 1.37788 15.608 1.36173 15.6154 1.35127L15.6235 1.33989L15.6253 1.33733Z" fill="#2C2D2E"/>
</svg>
