<svg width="444" height="444" viewBox="0 0 444 444" fill="none" xmlns="http://www.w3.org/2000/svg">
<path d="M75.7512 103.794C67.5194 95.5621 53.9546 96.054 47.1674 105.512C17.4913 146.867 0 197.543 0 252.233C0 307.583 17.9164 358.837 48.248 400.466C54.5182 409.072 66.9188 409.523 74.4478 401.994C82.0537 394.388 94.5111 395.026 102.124 402.625C103.069 403.569 104.023 404.504 104.986 405.43C111.384 411.582 121.464 411.064 127.74 404.787C134.987 397.541 134.264 385.641 126.991 378.421C126.299 377.734 125.613 377.042 124.932 376.344C118.378 369.622 107.476 368.966 100.838 375.604C94.2822 382.16 83.4629 381.685 78.1361 374.096C53.9057 339.58 39.6562 297.536 39.6562 252.233C39.6562 207.262 53.6975 165.517 77.6047 131.148C83.4944 122.681 83.0444 111.087 75.7512 103.794Z" fill="white"/>
<path d="M402.57 102.07C410.026 109.534 422.304 110.222 429.765 102.762L429.904 102.624L431.129 101.399L431.272 101.255C438.455 94.0716 438.958 82.5097 431.827 75.2745C426.751 70.1252 421.458 65.1924 415.956 60.4853C371.862 22.7929 314.663 0 252.233 0C197.542 0 146.865 17.492 105.51 47.1692C96.0529 53.9555 95.561 67.5184 103.792 75.7491C111.085 83.0429 122.681 83.4911 131.147 77.5994C165.516 53.6832 207.262 39.6563 252.233 39.6563C303.729 39.6563 350.996 58.0492 387.819 88.6223C392.89 92.8294 397.76 97.2652 402.416 101.916L402.493 101.993L402.57 102.07Z" fill="white"/>
<path d="M403.086 431.129C410.35 438.393 422.043 438.902 429.354 431.685C429.688 431.355 430.02 431.025 430.352 430.694C430.41 430.637 430.467 430.581 430.524 430.524C430.581 430.467 430.637 430.41 430.693 430.352C431.025 430.021 431.355 429.688 431.684 429.354C438.901 422.043 438.393 410.35 431.129 403.086L430.018 401.975C430 401.958 429.982 401.94 429.965 401.922L429.903 401.861L391.201 363.158C415.561 332.736 430.12 294.156 430.12 252.234C430.12 218.363 420.616 186.699 404.118 159.731C397.855 149.492 383.779 148.75 375.292 157.237C368.209 164.32 367.557 175.462 372.506 184.17C383.936 204.28 390.464 227.516 390.464 252.234C390.464 283.185 380.229 311.832 362.95 334.908L333.869 305.826C344.009 290.436 349.92 272.024 349.92 252.234C349.92 241.721 348.252 231.602 345.168 222.118C340.999 209.296 324.936 207.592 315.402 217.127C309.046 223.482 307.764 233.108 309.353 241.955C309.952 245.291 310.264 248.726 310.264 252.234C310.264 260.996 308.319 269.305 304.806 276.764C299.066 289.095 289.095 299.066 276.783 304.825C269.323 308.319 261.014 310.283 252.233 310.283C248.705 310.283 245.256 309.966 241.909 309.36C233.077 307.761 223.476 309.053 217.13 315.399C207.584 324.945 209.291 341.023 222.131 345.193C231.618 348.273 241.737 349.939 252.233 349.939C272.005 349.939 290.436 344.028 305.826 333.869L334.908 362.95C311.831 380.229 283.203 390.464 252.234 390.464C227.501 390.464 204.274 383.937 184.169 372.507C175.461 367.557 164.32 368.209 157.238 375.291C148.751 383.779 149.494 397.854 159.733 404.116C186.699 420.606 218.382 430.121 252.234 430.121C294.137 430.121 332.736 415.542 363.158 391.201L401.807 429.85C401.825 429.868 401.843 429.886 401.861 429.904L401.922 429.965L403.086 431.129Z" fill="white"/>
<path d="M141.328 113.286C171.75 88.9255 210.33 74.366 252.234 74.366C286.104 74.366 317.792 83.8697 344.76 100.367C354.998 106.631 355.738 120.706 347.251 129.192C340.167 136.277 329.024 136.929 320.314 131.978C300.204 120.549 276.965 114.022 252.234 114.022C221.264 114.022 192.655 124.257 169.579 141.536L198.638 170.598C214.029 160.457 232.462 154.547 252.233 154.547C262.742 154.547 272.871 156.217 282.367 159.306C295.196 163.481 296.895 179.549 287.355 189.088C281.01 195.434 271.408 196.729 262.577 195.13C259.219 194.522 255.761 194.203 252.233 194.203C243.471 194.203 235.162 196.167 227.703 199.661C215.391 205.42 205.42 215.391 199.661 227.703C196.167 235.163 194.203 243.471 194.203 252.234C194.203 255.761 194.521 259.218 195.13 262.576C196.729 271.407 195.433 281.01 189.087 287.356C179.541 296.902 163.464 295.194 159.296 282.354C156.214 272.86 154.547 262.733 154.547 252.234C154.547 232.463 160.457 214.034 170.596 198.644C155.262 183.31 129.444 185.219 122.11 205.627C116.875 220.193 114.022 235.885 114.022 252.234C114.022 276.085 120.093 298.547 130.777 318.154C135.807 327.387 148.19 328.251 155.625 320.816L156.479 319.962C163.769 312.672 175.905 314 183.195 321.289C190.484 328.579 191.811 340.715 184.522 348.004L181.607 350.919C174.702 357.825 163.657 358.712 156.61 351.952C156.015 351.381 155.425 350.805 154.84 350.223C147.244 342.671 134.752 341.692 127.178 349.266C119.767 356.677 107.489 356.028 101.879 347.175C84.4621 319.688 74.366 287.105 74.366 252.234C74.366 210.331 88.9437 171.771 113.284 141.331C121.555 130.983 130.962 121.557 141.328 113.286Z" fill="white"/>
</svg>
