<svg width="470" height="660" viewBox="0 0 470 660" fill="none" xmlns="http://www.w3.org/2000/svg">
<g clip-path="url(#clip0_9_30)">
<g clip-path="url(#clip1_9_30)">
<path d="M276.333 836.49C276.333 836.49 286.624 870.348 286.624 893.401C286.624 893.401 288.58 933.638 286.624 957.675C286.624 957.675 281.994 972.882 287.498 987.114C292.993 1001.35 292.019 1001.83 292.019 1010.18C292.019 1018.52 290.545 1032.75 291.037 1037.16C291.528 1041.58 294.467 1048.45 294.958 1052.37C295.449 1056.3 291.528 1055.81 291.528 1055.81L292.51 1064.64C292.51 1064.64 298.389 1059.24 299.862 1064.64C299.862 1064.64 300.845 1074.94 305.74 1083.77C305.74 1083.77 308.188 1090.64 305.74 1099.96L306.831 1113.21C306.831 1113.21 269.48 1118.11 244.985 1120.08C220.49 1122.05 206.277 1123.02 193.047 1123.52C179.816 1124.01 152.865 1118.61 146.987 1116.65C141.108 1114.68 131.8 1101.44 146.987 1098C146.987 1098 172.956 1094.08 177.852 1091.62C182.747 1089.17 188.143 1082.8 195.495 1080.34C202.846 1077.88 211.173 1070.52 214.603 1068.07C218.033 1065.62 223.42 1058.75 225.385 1056.3C227.342 1053.85 229.798 1049.43 230.281 1047.47C230.772 1045.51 230.281 1043.05 230.281 1041.09C230.281 1039.13 231.755 1033.24 233.22 1029.32C234.694 1025.39 230.281 1019.51 228.324 1016.07C226.368 1012.64 221.156 1012.64 222.779 1004.78C224.403 996.928 225.077 989.082 222.779 982.704C220.481 976.326 208.725 903.223 208.725 890.95C208.725 878.677 206.768 853.173 205.786 848.262C204.803 843.36 200.89 835.014 200.399 831.087C199.907 827.16 195.986 822.257 194.52 818.822C193.047 815.387 189.133 805.574 190.599 790.859C192.073 776.143 190.599 772.708 190.599 772.708C190.599 772.708 136.213 784.972 113.183 788.899C113.183 788.899 117.596 708.434 120.043 679.487C120.043 679.487 123.474 625.026 130.826 583.322C138.178 541.618 138.178 535.732 139.643 521.992C141.108 508.251 147.969 470.966 150.425 459.677C150.425 459.677 120.535 445.937 118.087 442.994C115.639 440.051 112.209 442.502 110.244 442.994C108.287 443.486 105.348 446.921 103.874 444.47C102.4 442.018 85.7482 425.827 83.292 412.579C83.292 412.579 82.3095 415.522 70.5531 412.579C58.7966 409.636 55.3663 407.676 54.875 406.201C54.3838 404.725 42.1361 402.766 42.1361 395.404C42.1361 395.404 32.3363 390.009 33.81 378.228C33.81 378.228 26.9493 380.188 23.0277 378.228C19.1061 376.269 17.1495 367.431 23.0277 364.488L8.81504 356.151C8.81504 356.151 3.42805 347.321 11.2629 347.321H23.5106L54.8667 364.989C54.8667 364.989 53.393 354.191 55.3579 352.724C57.3146 351.248 62.7099 342.911 72.5097 349.781C72.5097 349.781 89.6615 355.667 91.6181 368.424C91.6181 368.424 93.5747 374.31 98.9701 370.875C98.9701 370.875 113.183 360.57 120.035 368.424C120.035 368.424 140.126 374.802 146.004 381.672C146.004 381.672 150.184 387.066 156.911 383.148C156.911 383.148 160.209 379.713 159.717 369.407C159.717 369.407 159.226 289.434 168.043 264.897C168.043 264.897 169.026 239.384 179.317 227.612L188.134 214.856L175.887 198.664L189.117 187.867C189.117 187.867 175.395 187.867 175.887 176.578C175.887 176.578 173.439 170.2 170.008 168.724C170.008 168.724 165.113 166.273 167.069 162.346H160.209V152.533L153.839 155.476C153.839 155.476 144.039 157.435 146.487 145.171C146.487 145.171 148.444 133.882 147.47 123.093C147.47 123.093 146.978 117.699 143.548 116.223C143.548 116.223 135.705 112.788 135.705 102.483C135.705 102.483 132.274 81.8728 136.196 75.0027C136.196 75.0027 122.966 73.527 123.457 62.2464C123.457 62.2464 126.887 55.3763 128.844 50.4738C130.801 45.5714 132.766 41.1525 142.074 36.2418C151.383 31.3393 149.917 26.9205 153.831 23.9773C157.744 21.0342 163.631 17.5992 170 16.1234C176.369 14.6477 188.617 4.83449 198.908 5.81831C209.199 6.80213 227.816 7.77762 230.756 10.7207C233.695 13.6639 246.434 22.9852 249.864 35.7415C253.294 48.4979 258.19 57.8192 258.681 63.7054C259.173 69.5917 261.62 82.8399 262.603 88.7262C263.585 94.6124 260.155 115.715 263.094 119.633C266.033 123.56 274.851 118.649 277.79 118.649C277.79 118.649 279.746 123.552 283.177 131.406C286.607 139.26 287.59 136.8 288.564 141.711C289.546 146.613 292.977 150.54 292.977 150.54C292.977 150.54 343.441 152.016 368.927 173.602C368.927 173.602 408.618 201.082 408.127 259.953C408.127 259.953 412.048 269.274 419.4 282.031C419.4 282.031 425.278 289.885 425.278 300.673C425.278 311.462 427.726 312.446 425.77 323.243C423.813 334.04 420.874 333.056 420.383 340.418C419.891 347.78 414.996 346.796 424.304 355.134C433.613 363.471 436.061 363.963 438.026 370.341C439.982 376.719 440.473 393.895 438.517 398.797C436.56 403.699 424.795 417.44 424.795 417.44C424.795 417.44 444.395 428.237 408.626 469.941C408.626 469.941 426.269 518.023 431.165 546.971C436.061 575.918 453.212 633.322 456.151 660.802C459.091 688.283 457.625 701.522 461.047 712.32C464.469 723.117 466.434 736.848 466.434 736.848C466.434 736.848 454.678 751.08 425.278 755.983C395.879 760.885 382.649 762.853 369.418 764.812C356.188 766.772 346.388 767.263 340.51 768.739C334.632 770.215 326.789 773.158 325.323 773.642C323.85 774.134 327.771 775.117 335.615 778.061C343.458 781.004 351.293 786.89 356.68 789.349C362.067 791.801 383.631 797.203 403.714 825.167C403.714 825.167 424.296 846.753 431.639 852.648C431.639 852.648 455.652 853.139 466.426 868.347C477.208 883.555 476.717 884.538 482.595 889.933C488.473 895.327 492.395 898.27 492.395 898.27C492.395 898.27 504.643 889.441 523.26 904.157L533.551 913.97C533.551 913.97 540.903 925.742 527.673 955.674C527.673 955.674 521.303 972.357 512.977 996.886C512.977 996.886 501.704 1031.72 479.165 1050.36C479.165 1050.36 462.996 1063.12 457.609 1065.57C452.222 1068.02 440.948 1069.01 438.991 1062.14C437.035 1055.27 437.518 1035.64 441.93 1026.81C446.343 1017.98 446.826 1008.17 446.343 1000.8C445.86 993.443 443.895 974.308 443.895 965.479C443.895 956.649 433.113 944.385 440.465 938.49C440.465 938.49 431.157 926.226 430.174 922.791C429.192 919.356 419.883 922.299 412.531 918.864C405.179 915.429 376.762 887.957 365.006 880.595C353.249 873.233 341.976 869.798 336.097 865.387C330.219 860.968 292.977 841.834 276.316 836.44L276.333 836.49Z" fill="#1A1A1A"/>
</g>
</g>
<defs>
<clipPath id="clip0_9_30">
<rect width="470" height="660" fill="white"/>
</clipPath>
<clipPath id="clip1_9_30">
<rect width="481" height="717" fill="white" transform="translate(7)"/>
</clipPath>
</defs>
</svg>
