<svg width="108" height="37" viewBox="0 0 108 37" fill="none" xmlns="http://www.w3.org/2000/svg">
<path d="M47.6292 11.8392C47.5104 11.8392 47.4129 11.8015 47.3366 11.7261C47.2688 11.6591 47.2136 11.6005 47.1712 11.5502L46.7006 10.9219C46.3021 11.0727 45.8484 11.1481 45.3396 11.1481C44.5849 11.1481 43.932 11.0266 43.3808 10.7836C42.8381 10.5323 42.4141 10.1511 42.1089 9.64007C41.8121 9.12065 41.6467 8.47556 41.6128 7.70481C41.6043 7.34457 41.6001 6.98851 41.6001 6.63665C41.6001 6.28478 41.6043 5.92454 41.6128 5.55592C41.6467 4.79354 41.8163 4.15683 42.1216 3.64579C42.4353 3.13475 42.8678 2.74937 43.419 2.48966C43.9702 2.22995 44.6104 2.1001 45.3396 2.1001C46.0689 2.1001 46.7091 2.22995 47.2603 2.48966C47.8115 2.74937 48.2439 3.13475 48.5577 3.64579C48.8714 4.15683 49.0368 4.79354 49.0537 5.55592C49.0707 5.92454 49.0792 6.28478 49.0792 6.63665C49.0792 6.98851 49.0707 7.34457 49.0537 7.70481C49.0113 8.8023 48.7061 9.63588 48.1379 10.2056L49.0283 11.4497C49.0368 11.458 49.0453 11.4706 49.0537 11.4874C49.0622 11.5125 49.0665 11.5418 49.0665 11.5753C49.0749 11.6507 49.0495 11.7136 48.9901 11.7638C48.9393 11.8141 48.8799 11.8392 48.8121 11.8392H47.6292ZM45.3396 9.7029C45.8823 9.7029 46.3275 9.54373 46.6752 9.22537C47.0229 8.89864 47.2094 8.37084 47.2348 7.64198C47.2518 7.27336 47.2603 6.93406 47.2603 6.62408C47.2603 6.30573 47.2518 5.96643 47.2348 5.60618C47.2264 5.12028 47.1373 4.72652 46.9677 4.42492C46.7981 4.11495 46.5734 3.89294 46.2936 3.75889C46.0223 3.61647 45.7043 3.54526 45.3396 3.54526C44.9835 3.54526 44.6655 3.61647 44.3857 3.75889C44.1058 3.89294 43.8811 4.11495 43.7115 4.42492C43.5504 4.72652 43.4571 5.12028 43.4317 5.60618C43.4232 5.96643 43.419 6.30573 43.419 6.62408C43.419 6.93406 43.4232 7.27336 43.4317 7.64198C43.4656 8.37084 43.6564 8.89864 44.0041 9.22537C44.3518 9.54373 44.7969 9.7029 45.3396 9.7029Z" fill="#005FFF"/>
<path d="M52.9244 11.1481C52.4072 11.1481 51.9578 11.035 51.5762 10.8088C51.2031 10.5742 50.9148 10.2475 50.7112 9.82857C50.5077 9.4013 50.406 8.89864 50.406 8.32057V4.78935C50.406 4.70558 50.4357 4.63437 50.495 4.57572C50.5544 4.51708 50.6265 4.48776 50.7112 4.48776H51.8306C51.9238 4.48776 51.9959 4.51708 52.0468 4.57572C52.1062 4.63437 52.1358 4.70558 52.1358 4.78935V8.24518C52.1358 9.28402 52.598 9.80344 53.5223 9.80344C53.9632 9.80344 54.3109 9.6652 54.5653 9.38874C54.8281 9.11227 54.9596 8.73108 54.9596 8.24518V4.78935C54.9596 4.70558 54.9892 4.63437 55.0486 4.57572C55.108 4.51708 55.18 4.48776 55.2648 4.48776H56.3842C56.469 4.48776 56.541 4.51708 56.6004 4.57572C56.6597 4.63437 56.6894 4.70558 56.6894 4.78935V10.7208C56.6894 10.8046 56.6597 10.8758 56.6004 10.9344C56.541 10.9931 56.469 11.0224 56.3842 11.0224H55.3539C55.2606 11.0224 55.1843 10.9931 55.1249 10.9344C55.074 10.8758 55.0486 10.8046 55.0486 10.7208V10.2056C54.8197 10.4988 54.5356 10.7292 54.1964 10.8967C53.8572 11.0643 53.4332 11.1481 52.9244 11.1481Z" fill="#005FFF"/>
<path d="M60.1503 11.1481C59.7094 11.1481 59.3108 11.0643 58.9547 10.8967C58.5985 10.7208 58.3145 10.4904 58.1025 10.2056C57.899 9.91235 57.7972 9.58561 57.7972 9.22537C57.7972 8.63893 58.0346 8.17396 58.5095 7.83048C58.9928 7.47861 59.6288 7.24403 60.4174 7.12675L62.16 6.87541V6.61151C62.16 6.25965 62.071 5.98737 61.8929 5.79468C61.7148 5.602 61.4096 5.50565 60.9771 5.50565C60.6718 5.50565 60.4217 5.56849 60.2266 5.69415C60.0401 5.81144 59.9002 5.97062 59.8069 6.17168C59.7391 6.28059 59.6415 6.33505 59.5144 6.33505H58.5095C58.4162 6.33505 58.3442 6.30992 58.2933 6.25965C58.2509 6.20938 58.2297 6.14236 58.2297 6.05858C58.2382 5.92454 58.2933 5.76117 58.395 5.56849C58.4968 5.3758 58.6579 5.19149 58.8784 5.01555C59.0988 4.83124 59.3829 4.67626 59.7306 4.55059C60.0782 4.42492 60.498 4.36209 60.9898 4.36209C61.524 4.36209 61.9735 4.42911 62.3381 4.56316C62.7112 4.68882 63.008 4.86057 63.2284 5.07839C63.4489 5.29621 63.61 5.55173 63.7118 5.84495C63.8135 6.13817 63.8644 6.44815 63.8644 6.77488V10.7208C63.8644 10.8046 63.8347 10.8758 63.7754 10.9344C63.716 10.9931 63.644 11.0224 63.5592 11.0224H62.5289C62.4356 11.0224 62.3593 10.9931 62.2999 10.9344C62.249 10.8758 62.2236 10.8046 62.2236 10.7208V10.2307C62.1134 10.3899 61.965 10.5407 61.7784 10.6831C61.5919 10.8171 61.3629 10.9302 61.0916 11.0224C60.8287 11.1062 60.515 11.1481 60.1503 11.1481ZM60.5828 9.95424C60.8796 9.95424 61.1467 9.8914 61.3841 9.76574C61.63 9.64007 61.8208 9.44738 61.9565 9.18767C62.1007 8.91958 62.1727 8.58447 62.1727 8.18234V7.91844L60.9008 8.11951C60.4005 8.19491 60.0274 8.31639 59.7815 8.48394C59.5355 8.6515 59.4126 8.85675 59.4126 9.09971C59.4126 9.28402 59.4677 9.44319 59.5779 9.57724C59.6967 9.7029 59.8451 9.79925 60.0231 9.86627C60.2012 9.92491 60.3878 9.95424 60.5828 9.95424Z" fill="#005FFF"/>
<path d="M65.6616 11.0224C65.5768 11.0224 65.5047 10.9931 65.4453 10.9344C65.386 10.8758 65.3563 10.8046 65.3563 10.7208V4.78935C65.3563 4.70558 65.386 4.63437 65.4453 4.57572C65.5047 4.51708 65.5768 4.48776 65.6616 4.48776H66.7046C66.7894 4.48776 66.8614 4.51708 66.9208 4.57572C66.9801 4.63437 67.0098 4.70558 67.0098 4.78935V5.30459C67.2303 5.0365 67.5101 4.81449 67.8493 4.63856C68.197 4.45424 68.6252 4.36209 69.134 4.36209C69.6512 4.36209 70.1007 4.47938 70.4823 4.71395C70.8638 4.94015 71.1564 5.2627 71.3599 5.68158C71.5719 6.10047 71.6779 6.60314 71.6779 7.18958V10.7208C71.6779 10.8046 71.6482 10.8758 71.5888 10.9344C71.5295 10.9931 71.4574 11.0224 71.3726 11.0224H70.2533C70.1685 11.0224 70.0964 10.9931 70.0371 10.9344C69.9777 10.8758 69.948 10.8046 69.948 10.7208V7.26498C69.948 6.77907 69.8251 6.39788 69.5792 6.12142C69.3417 5.84495 68.9941 5.70672 68.5362 5.70672C68.0952 5.70672 67.7433 5.84495 67.4804 6.12142C67.2176 6.39788 67.0861 6.77907 67.0861 7.26498V10.7208C67.0861 10.8046 67.0565 10.8758 66.9971 10.9344C66.9377 10.9931 66.8657 11.0224 66.7809 11.0224H65.6616Z" fill="#005FFF"/>
<path d="M76.0682 11.0224C75.5594 11.0224 75.1312 10.9344 74.7835 10.7585C74.4359 10.5826 74.1772 10.3229 74.0076 9.97937C73.8381 9.6275 73.7533 9.19186 73.7533 8.67244V5.81982H72.7484C72.6636 5.81982 72.5915 5.7905 72.5322 5.73185C72.4728 5.67321 72.4431 5.602 72.4431 5.51822V4.78935C72.4431 4.70558 72.4728 4.63437 72.5322 4.57572C72.5915 4.51708 72.6636 4.48776 72.7484 4.48776H73.7533V2.4017C73.7533 2.31792 73.7787 2.24671 73.8296 2.18806C73.8889 2.12942 73.9652 2.1001 74.0585 2.1001H75.0888C75.1736 2.1001 75.2457 2.12942 75.305 2.18806C75.3644 2.24671 75.3941 2.31792 75.3941 2.4017V4.48776H76.984C77.0688 4.48776 77.1409 4.51708 77.2002 4.57572C77.2596 4.63437 77.2893 4.70558 77.2893 4.78935V5.51822C77.2893 5.602 77.2596 5.67321 77.2002 5.73185C77.1409 5.7905 77.0688 5.81982 76.984 5.81982H75.3941V8.54677C75.3941 8.89026 75.4534 9.15835 75.5721 9.35104C75.6993 9.54373 75.9156 9.64007 76.2208 9.64007H77.0985C77.1833 9.64007 77.2554 9.66939 77.3147 9.72804C77.3741 9.78668 77.4038 9.85789 77.4038 9.94167V10.7208C77.4038 10.8046 77.3741 10.8758 77.3147 10.9344C77.2554 10.9931 77.1833 11.0224 77.0985 11.0224H76.0682Z" fill="#005FFF"/>
<path d="M80.8471 11.1481C80.3298 11.1481 79.8804 11.035 79.4988 10.8088C79.1257 10.5742 78.8374 10.2475 78.6339 9.82857C78.4304 9.4013 78.3286 8.89864 78.3286 8.32057V4.78935C78.3286 4.70558 78.3583 4.63437 78.4176 4.57572C78.477 4.51708 78.5491 4.48776 78.6339 4.48776H79.7532C79.8465 4.48776 79.9185 4.51708 79.9694 4.57572C80.0288 4.63437 80.0585 4.70558 80.0585 4.78935V8.24518C80.0585 9.28402 80.5206 9.80344 81.4449 9.80344C81.8858 9.80344 82.2335 9.6652 82.4879 9.38874C82.7508 9.11227 82.8822 8.73108 82.8822 8.24518V4.78935C82.8822 4.70558 82.9119 4.63437 82.9712 4.57572C83.0306 4.51708 83.1027 4.48776 83.1875 4.48776H84.3068C84.3916 4.48776 84.4637 4.51708 84.523 4.57572C84.5824 4.63437 84.612 4.70558 84.612 4.78935V10.7208C84.612 10.8046 84.5824 10.8758 84.523 10.9344C84.4637 10.9931 84.3916 11.0224 84.3068 11.0224H83.2765C83.1832 11.0224 83.1069 10.9931 83.0475 10.9344C82.9967 10.8758 82.9712 10.8046 82.9712 10.7208V10.2056C82.7423 10.4988 82.4582 10.7292 82.119 10.8967C81.7798 11.0643 81.3559 11.1481 80.8471 11.1481Z" fill="#005FFF"/>
<path d="M86.4576 11.0224C86.3728 11.0224 86.3007 10.9931 86.2413 10.9344C86.182 10.8758 86.1523 10.8046 86.1523 10.7208V4.78935C86.1523 4.70558 86.182 4.63437 86.2413 4.57572C86.3007 4.51708 86.3728 4.48776 86.4576 4.48776H87.4497C87.5345 4.48776 87.6066 4.51708 87.6659 4.57572C87.7253 4.63437 87.755 4.70558 87.755 4.78935V5.21662C87.933 4.98204 88.1705 4.78517 88.4673 4.62599C88.7725 4.45843 89.1329 4.37047 89.5484 4.36209C90.5151 4.34533 91.1892 4.71814 91.5708 5.48052C91.7659 5.14541 92.0457 4.87732 92.4103 4.67626C92.7834 4.46681 93.1947 4.36209 93.6441 4.36209C94.085 4.36209 94.4836 4.46262 94.8397 4.66369C95.2044 4.86475 95.4884 5.17054 95.6919 5.58105C95.9039 5.98318 96.0099 6.49423 96.0099 7.11418V10.7208C96.0099 10.8046 95.9803 10.8758 95.9209 10.9344C95.8615 10.9931 95.7895 11.0224 95.7047 11.0224H94.6617C94.5769 11.0224 94.5048 10.9931 94.4454 10.9344C94.3861 10.8758 94.3564 10.8046 94.3564 10.7208V7.21471C94.3564 6.83771 94.3013 6.5403 94.191 6.32248C94.0808 6.09628 93.9324 5.93711 93.7459 5.84495C93.5593 5.7528 93.3515 5.70672 93.1226 5.70672C92.936 5.70672 92.7495 5.7528 92.5629 5.84495C92.3764 5.93711 92.2238 6.09628 92.105 6.32248C91.9863 6.5403 91.927 6.83771 91.927 7.21471V10.7208C91.927 10.8046 91.8973 10.8758 91.8379 10.9344C91.7786 10.9931 91.7065 11.0224 91.6217 11.0224H90.5787C90.4854 11.0224 90.4091 10.9931 90.3497 10.9344C90.2989 10.8758 90.2734 10.8046 90.2734 10.7208V7.21471C90.2734 6.83771 90.2141 6.5403 90.0954 6.32248C89.9766 6.09628 89.824 5.93711 89.6374 5.84495C89.4509 5.7528 89.2516 5.70672 89.0396 5.70672C88.8446 5.70672 88.6538 5.75698 88.4673 5.85752C88.2807 5.94967 88.1281 6.10466 88.0094 6.32248C87.8906 6.5403 87.8313 6.83771 87.8313 7.21471V10.7208C87.8313 10.8046 87.8016 10.8758 87.7422 10.9344C87.6829 10.9931 87.6108 11.0224 87.526 11.0224H86.4576Z" fill="#005FFF"/>
<path d="M45.3524 24.5001C44.5637 24.5001 43.8939 24.3661 43.3427 24.098C42.8 23.8215 42.3845 23.4319 42.0962 22.9293C41.8078 22.4182 41.6467 21.8067 41.6128 21.0945C41.6043 20.7511 41.6001 20.3824 41.6001 19.9887C41.6001 19.5949 41.6043 19.2179 41.6128 18.8577C41.6467 18.154 41.8078 17.5466 42.0962 17.0355C42.3929 16.5245 42.8127 16.1349 43.3554 15.8668C43.9066 15.5904 44.5722 15.4521 45.3524 15.4521C45.929 15.4521 46.4462 15.5275 46.9041 15.6783C47.362 15.8291 47.7521 16.0386 48.0743 16.3067C48.3966 16.5664 48.6467 16.8722 48.8248 17.224C49.0029 17.5759 49.0961 17.9571 49.1046 18.3676C49.1131 18.443 49.0877 18.5058 49.0283 18.5561C48.9774 18.6064 48.9138 18.6315 48.8375 18.6315H47.6292C47.5359 18.6315 47.4596 18.6105 47.4002 18.5687C47.3408 18.5184 47.2984 18.4388 47.273 18.3299C47.1373 17.777 46.9041 17.4 46.5734 17.1989C46.2427 16.9978 45.8315 16.8973 45.3396 16.8973C44.7715 16.8973 44.3178 17.0565 43.9786 17.3748C43.6395 17.6848 43.4571 18.2 43.4317 18.9205C43.4063 19.6075 43.4063 20.3112 43.4317 21.0317C43.4571 21.7522 43.6395 22.2716 43.9786 22.59C44.3178 22.8999 44.7715 23.0549 45.3396 23.0549C45.8315 23.0549 46.2427 22.9544 46.5734 22.7533C46.9041 22.5439 47.1373 22.1669 47.273 21.6223C47.2984 21.5051 47.3408 21.4255 47.4002 21.3836C47.4596 21.3417 47.5359 21.3207 47.6292 21.3207H48.8375C48.9138 21.3207 48.9774 21.3459 49.0283 21.3961C49.0877 21.4464 49.1131 21.5092 49.1046 21.5846C49.0961 21.9952 49.0029 22.3763 48.8248 22.7282C48.6467 23.0801 48.3966 23.39 48.0743 23.6581C47.7521 23.9178 47.362 24.1231 46.9041 24.2739C46.4462 24.4247 45.929 24.5001 45.3524 24.5001Z" fill="#005FFF"/>
<path d="M53.246 24.5001C52.5676 24.5001 51.9953 24.3828 51.5289 24.1482C51.071 23.9137 50.7191 23.5827 50.4732 23.1555C50.2357 22.7282 50.1 22.2297 50.0661 21.66C50.0577 21.5092 50.0534 21.3249 50.0534 21.1071C50.0534 20.8893 50.0577 20.705 50.0661 20.5542C50.1 19.9761 50.24 19.4776 50.4859 19.0588C50.7403 18.6315 51.0964 18.3006 51.5543 18.066C52.0207 17.8314 52.5846 17.7141 53.246 17.7141C53.9074 17.7141 54.4671 17.8314 54.925 18.066C55.3914 18.3006 55.7475 18.6315 55.9934 19.0588C56.2478 19.4776 56.392 19.9761 56.4259 20.5542C56.4344 20.705 56.4386 20.8893 56.4386 21.1071C56.4386 21.3249 56.4344 21.5092 56.4259 21.66C56.392 22.2297 56.2521 22.7282 56.0061 23.1555C55.7687 23.5827 55.4168 23.9137 54.9504 24.1482C54.4925 24.3828 53.9244 24.5001 53.246 24.5001ZM53.246 23.256C53.6954 23.256 54.0431 23.1178 54.289 22.8413C54.5349 22.5565 54.6706 22.1418 54.696 21.5972C54.7045 21.4715 54.7088 21.3082 54.7088 21.1071C54.7088 20.906 54.7045 20.7427 54.696 20.617C54.6706 20.0808 54.5349 19.6703 54.289 19.3855C54.0431 19.1006 53.6954 18.9582 53.246 18.9582C52.7966 18.9582 52.4489 19.1006 52.203 19.3855C51.9571 19.6703 51.8214 20.0808 51.796 20.617C51.7875 20.7427 51.7833 20.906 51.7833 21.1071C51.7833 21.3082 51.7875 21.4715 51.796 21.5972C51.8214 22.1418 51.9571 22.5565 52.203 22.8413C52.4489 23.1178 52.7966 23.256 53.246 23.256Z" fill="#005FFF"/>
<path d="M58.026 24.3744C57.9412 24.3744 57.8691 24.3451 57.8097 24.2865C57.7504 24.2278 57.7207 24.1566 57.7207 24.0728V15.7537C57.7207 15.67 57.7504 15.5987 57.8097 15.5401C57.8691 15.4815 57.9412 15.4521 58.026 15.4521H59.0817C59.1665 15.4521 59.2386 15.4815 59.2979 15.5401C59.3573 15.5987 59.387 15.67 59.387 15.7537V24.0728C59.387 24.1566 59.3573 24.2278 59.2979 24.2865C59.2386 24.3451 59.1665 24.3744 59.0817 24.3744H58.026Z" fill="#005FFF"/>
<path d="M63.8598 24.5001C63.1814 24.5001 62.609 24.3828 62.1426 24.1482C61.6847 23.9137 61.3328 23.5827 61.0869 23.1555C60.8495 22.7282 60.7138 22.2297 60.6799 21.66C60.6714 21.5092 60.6672 21.3249 60.6672 21.1071C60.6672 20.8893 60.6714 20.705 60.6799 20.5542C60.7138 19.9761 60.8537 19.4776 61.0996 19.0588C61.354 18.6315 61.7102 18.3006 62.1681 18.066C62.6344 17.8314 63.1983 17.7141 63.8598 17.7141C64.5212 17.7141 65.0808 17.8314 65.5387 18.066C66.0051 18.3006 66.3613 18.6315 66.6072 19.0588C66.8616 19.4776 67.0057 19.9761 67.0396 20.5542C67.0481 20.705 67.0524 20.8893 67.0524 21.1071C67.0524 21.3249 67.0481 21.5092 67.0396 21.66C67.0057 22.2297 66.8658 22.7282 66.6199 23.1555C66.3825 23.5827 66.0306 23.9137 65.5642 24.1482C65.1063 24.3828 64.5381 24.5001 63.8598 24.5001ZM63.8598 23.256C64.3092 23.256 64.6568 23.1178 64.9028 22.8413C65.1487 22.5565 65.2843 22.1418 65.3098 21.5972C65.3183 21.4715 65.3225 21.3082 65.3225 21.1071C65.3225 20.906 65.3183 20.7427 65.3098 20.617C65.2843 20.0808 65.1487 19.6703 64.9028 19.3855C64.6568 19.1006 64.3092 18.9582 63.8598 18.9582C63.4103 18.9582 63.0627 19.1006 62.8168 19.3855C62.5708 19.6703 62.4352 20.0808 62.4097 20.617C62.4012 20.7427 62.397 20.906 62.397 21.1071C62.397 21.3082 62.4012 21.4715 62.4097 21.5972C62.4352 22.1418 62.5708 22.5565 62.8168 22.8413C63.0627 23.1178 63.4103 23.256 63.8598 23.256Z" fill="#005FFF"/>
<path d="M70.8275 24.5001C70.3187 24.5001 69.882 24.4415 69.5174 24.3242C69.1612 24.2069 68.8687 24.0603 68.6397 23.8843C68.4108 23.7084 68.2412 23.5325 68.1309 23.3565C68.0207 23.1806 67.9613 23.034 67.9529 22.9167C67.9444 22.8245 67.9698 22.7533 68.0292 22.7031C68.097 22.6444 68.1691 22.6151 68.2454 22.6151H69.2502C69.2842 22.6151 69.3138 22.6193 69.3393 22.6277C69.3647 22.636 69.3986 22.6612 69.441 22.7031C69.5513 22.7952 69.6658 22.8916 69.7845 22.9921C69.9117 23.0926 70.0601 23.1806 70.2297 23.256C70.3992 23.323 70.6112 23.3565 70.8656 23.3565C71.1963 23.3565 71.4719 23.2937 71.6924 23.168C71.9213 23.034 72.0358 22.8455 72.0358 22.6025C72.0358 22.4266 71.9849 22.2842 71.8832 22.1753C71.7899 22.0664 71.6118 21.97 71.349 21.8862C71.0861 21.7941 70.713 21.6977 70.2297 21.5972C69.7548 21.4883 69.3605 21.3501 69.0467 21.1825C68.733 21.015 68.4998 20.8055 68.3472 20.5542C68.1945 20.3028 68.1182 20.0096 68.1182 19.6745C68.1182 19.3478 68.2157 19.0378 68.4108 18.7446C68.6143 18.443 68.9111 18.1958 69.3011 18.0032C69.6997 17.8105 70.1915 17.7141 70.7766 17.7141C71.2345 17.7141 71.633 17.7728 71.9722 17.8901C72.3114 17.999 72.5912 18.1372 72.8117 18.3048C73.0407 18.4723 73.2145 18.6441 73.3332 18.82C73.4519 18.9875 73.5155 19.1342 73.524 19.2598C73.5325 19.352 73.507 19.4274 73.4477 19.486C73.3883 19.5363 73.3205 19.5614 73.2442 19.5614H72.3029C72.2605 19.5614 72.2224 19.553 72.1885 19.5363C72.1545 19.5195 72.1206 19.4986 72.0867 19.4735C71.9934 19.3897 71.8917 19.3017 71.7814 19.2096C71.6712 19.1174 71.5355 19.0378 71.3744 18.9708C71.2218 18.8954 71.0183 18.8577 70.7639 18.8577C70.4416 18.8577 70.1957 18.9289 70.0261 19.0713C69.8565 19.2054 69.7717 19.3771 69.7717 19.5865C69.7717 19.729 69.8099 19.8546 69.8862 19.9635C69.971 20.0641 70.1364 20.1604 70.3823 20.2526C70.6282 20.3447 71.0013 20.4411 71.5016 20.5416C72.0697 20.6421 72.5192 20.7929 72.8499 20.994C73.1891 21.1867 73.4265 21.4129 73.5622 21.6726C73.7063 21.9239 73.7784 22.2046 73.7784 22.5146C73.7784 22.8916 73.6639 23.2309 73.435 23.5325C73.2145 23.8341 72.8838 24.0728 72.4428 24.2488C72.0104 24.4163 71.4719 24.5001 70.8275 24.5001Z" fill="#005FFF"/>
<path d="M77.4572 24.5001C76.9484 24.5001 76.5117 24.4415 76.1471 24.3242C75.791 24.2069 75.4984 24.0603 75.2695 23.8843C75.0405 23.7084 74.8709 23.5325 74.7607 23.3565C74.6504 23.1806 74.5911 23.034 74.5826 22.9167C74.5741 22.8245 74.5996 22.7533 74.6589 22.7031C74.7268 22.6444 74.7988 22.6151 74.8752 22.6151H75.88C75.9139 22.6151 75.9436 22.6193 75.969 22.6277C75.9945 22.636 76.0284 22.6612 76.0708 22.7031C76.181 22.7952 76.2955 22.8916 76.4142 22.9921C76.5414 23.0926 76.6898 23.1806 76.8594 23.256C77.029 23.323 77.241 23.3565 77.4954 23.3565C77.8261 23.3565 78.1017 23.2937 78.3221 23.168C78.5511 23.034 78.6656 22.8455 78.6656 22.6025C78.6656 22.4266 78.6147 22.2842 78.5129 22.1753C78.4197 22.0664 78.2416 21.97 77.9787 21.8862C77.7158 21.7941 77.3427 21.6977 76.8594 21.5972C76.3845 21.4883 75.9902 21.3501 75.6765 21.1825C75.3627 21.015 75.1295 20.8055 74.9769 20.5542C74.8243 20.3028 74.748 20.0096 74.748 19.6745C74.748 19.3478 74.8455 19.0378 75.0405 18.7446C75.244 18.443 75.5408 18.1958 75.9309 18.0032C76.3294 17.8105 76.8212 17.7141 77.4063 17.7141C77.8642 17.7141 78.2628 17.7728 78.602 17.8901C78.9412 17.999 79.221 18.1372 79.4415 18.3048C79.6704 18.4723 79.8442 18.6441 79.963 18.82C80.0817 18.9875 80.1453 19.1342 80.1538 19.2598C80.1622 19.352 80.1368 19.4274 80.0774 19.486C80.0181 19.5363 79.9502 19.5614 79.8739 19.5614H78.9327C78.8903 19.5614 78.8521 19.553 78.8182 19.5363C78.7843 19.5195 78.7504 19.4986 78.7165 19.4735C78.6232 19.3897 78.5214 19.3017 78.4112 19.2096C78.3009 19.1174 78.1653 19.0378 78.0042 18.9708C77.8515 18.8954 77.648 18.8577 77.3936 18.8577C77.0714 18.8577 76.8255 18.9289 76.6559 19.0713C76.4863 19.2054 76.4015 19.3771 76.4015 19.5865C76.4015 19.729 76.4397 19.8546 76.516 19.9635C76.6008 20.0641 76.7661 20.1604 77.012 20.2526C77.2579 20.3447 77.6311 20.4411 78.1314 20.5416C78.6995 20.6421 79.1489 20.7929 79.4796 20.994C79.8188 21.1867 80.0562 21.4129 80.1919 21.6726C80.3361 21.9239 80.4081 22.2046 80.4081 22.5146C80.4081 22.8916 80.2937 23.2309 80.0647 23.5325C79.8442 23.8341 79.5135 24.0728 79.0726 24.2488C78.6401 24.4163 78.1017 24.5001 77.4572 24.5001Z" fill="#005FFF"/>
<path d="M84.4304 24.5001C83.4892 24.5001 82.7429 24.232 82.1918 23.6958C81.6406 23.1597 81.3438 22.3973 81.3014 21.4087C81.2929 21.3249 81.2887 21.2202 81.2887 21.0945C81.2887 20.9605 81.2929 20.8558 81.3014 20.7804C81.3353 20.152 81.4795 19.6075 81.7339 19.1467C81.9967 18.6859 82.3571 18.3341 82.815 18.0911C83.2729 17.8398 83.8114 17.7141 84.4304 17.7141C85.1173 17.7141 85.6939 17.8565 86.1603 18.1414C86.6266 18.4179 86.9785 18.8074 87.216 19.3101C87.4534 19.8044 87.5721 20.3782 87.5721 21.0317V21.2956C87.5721 21.3794 87.5424 21.4506 87.4831 21.5092C87.4237 21.5679 87.3474 21.5972 87.2541 21.5972H83.0313C83.0313 21.5972 83.0313 21.6098 83.0313 21.6349C83.0313 21.66 83.0313 21.681 83.0313 21.6977C83.0397 21.991 83.0948 22.2632 83.1966 22.5146C83.3068 22.7575 83.4637 22.9544 83.6672 23.1052C83.8792 23.256 84.1294 23.3314 84.4177 23.3314C84.6551 23.3314 84.8544 23.2979 85.0155 23.2309C85.1766 23.1555 85.308 23.0717 85.4098 22.9795C85.5116 22.8874 85.5836 22.812 85.626 22.7533C85.7024 22.6528 85.7617 22.5942 85.8041 22.5774C85.855 22.5523 85.9271 22.5397 86.0203 22.5397H87.1142C87.199 22.5397 87.2668 22.5648 87.3177 22.6151C87.3771 22.6654 87.4025 22.7282 87.394 22.8036C87.3856 22.9376 87.3135 23.101 87.1778 23.2937C87.0506 23.4864 86.8641 23.6749 86.6182 23.8592C86.3722 24.0435 86.0627 24.1985 85.6896 24.3242C85.325 24.4415 84.9053 24.5001 84.4304 24.5001ZM83.0313 20.5416H85.8423V20.5039C85.8423 20.1772 85.7871 19.8923 85.6769 19.6494C85.5667 19.4064 85.4056 19.2137 85.1936 19.0713C84.9816 18.9289 84.7272 18.8577 84.4304 18.8577C84.1336 18.8577 83.8792 18.9289 83.6672 19.0713C83.4552 19.2137 83.2941 19.4064 83.1839 19.6494C83.0821 19.8923 83.0313 20.1772 83.0313 20.5039V20.5416Z" fill="#005FFF"/>
<path d="M91.2372 24.5001C90.72 24.5001 90.2705 24.387 89.889 24.1608C89.5159 23.9262 89.2275 23.5995 89.024 23.1806C88.8205 22.7533 88.7188 22.2507 88.7188 21.6726V18.1414C88.7188 18.0576 88.7484 17.9864 88.8078 17.9278C88.8672 17.8691 88.9392 17.8398 89.024 17.8398H90.1434C90.2366 17.8398 90.3087 17.8691 90.3596 17.9278C90.4189 17.9864 90.4486 18.0576 90.4486 18.1414V21.5972C90.4486 22.6361 90.9108 23.1555 91.835 23.1555C92.276 23.1555 92.6237 23.0172 92.878 22.7408C93.1409 22.4643 93.2724 22.0831 93.2724 21.5972V18.1414C93.2724 18.0576 93.302 17.9864 93.3614 17.9278C93.4207 17.8691 93.4928 17.8398 93.5776 17.8398H94.6969C94.7817 17.8398 94.8538 17.8691 94.9132 17.9278C94.9725 17.9864 95.0022 18.0576 95.0022 18.1414V24.0728C95.0022 24.1566 94.9725 24.2278 94.9132 24.2865C94.8538 24.3451 94.7817 24.3744 94.6969 24.3744H93.6667C93.5734 24.3744 93.4971 24.3451 93.4377 24.2865C93.3868 24.2278 93.3614 24.1566 93.3614 24.0728V23.5576C93.1324 23.8508 92.8484 24.0812 92.5092 24.2488C92.17 24.4163 91.746 24.5001 91.2372 24.5001Z" fill="#005FFF"/>
<path d="M96.8477 24.3744C96.7629 24.3744 96.6909 24.3451 96.6315 24.2865C96.5721 24.2278 96.5425 24.1566 96.5425 24.0728V18.1414C96.5425 18.0576 96.5721 17.9864 96.6315 17.9278C96.6909 17.8691 96.7629 17.8398 96.8477 17.8398H97.8399C97.9247 17.8398 97.9967 17.8691 98.0561 17.9278C98.1154 17.9864 98.1451 18.0576 98.1451 18.1414V18.5687C98.3232 18.3341 98.5606 18.1372 98.8574 17.978C99.1627 17.8105 99.5231 17.7225 99.9386 17.7141C100.905 17.6974 101.579 18.0702 101.961 18.8326C102.156 18.4974 102.436 18.2294 102.8 18.0283C103.174 17.8188 103.585 17.7141 104.034 17.7141C104.475 17.7141 104.874 17.8147 105.23 18.0157C105.595 18.2168 105.879 18.5226 106.082 18.9331C106.294 19.3352 106.4 19.8463 106.4 20.4662V24.0728C106.4 24.1566 106.37 24.2278 106.311 24.2865C106.252 24.3451 106.18 24.3744 106.095 24.3744H105.052C104.967 24.3744 104.895 24.3451 104.836 24.2865C104.776 24.2278 104.747 24.1566 104.747 24.0728V20.5667C104.747 20.1897 104.691 19.8923 104.581 19.6745C104.471 19.4483 104.323 19.2891 104.136 19.197C103.949 19.1048 103.742 19.0588 103.513 19.0588C103.326 19.0588 103.14 19.1048 102.953 19.197C102.767 19.2891 102.614 19.4483 102.495 19.6745C102.376 19.8923 102.317 20.1897 102.317 20.5667V24.0728C102.317 24.1566 102.287 24.2278 102.228 24.2865C102.169 24.3451 102.097 24.3744 102.012 24.3744H100.969C100.876 24.3744 100.799 24.3451 100.74 24.2865C100.689 24.2278 100.664 24.1566 100.664 24.0728V20.5667C100.664 20.1897 100.604 19.8923 100.486 19.6745C100.367 19.4483 100.214 19.2891 100.028 19.197C99.8411 19.1048 99.6418 19.0588 99.4298 19.0588C99.2348 19.0588 99.044 19.109 98.8574 19.2096C98.6709 19.3017 98.5182 19.4567 98.3995 19.6745C98.2808 19.8923 98.2214 20.1897 98.2214 20.5667V24.0728C98.2214 24.1566 98.1918 24.2278 98.1324 24.2865C98.073 24.3451 98.001 24.3744 97.9162 24.3744H96.8477Z" fill="#005FFF"/>
<g opacity="0.8">
<path d="M43.0779 35.6332C43.0356 35.6332 42.9997 35.6177 42.9701 35.5866C42.9405 35.5555 42.9257 35.5177 42.9257 35.4732V31.7866H41.7523C41.71 31.7866 41.6741 31.771 41.6445 31.7399C41.6149 31.7088 41.6001 31.671 41.6001 31.6266V31.1332C41.6001 31.0843 41.6149 31.0443 41.6445 31.0132C41.6741 30.9821 41.71 30.9666 41.7523 30.9666H44.987C45.0335 30.9666 45.0716 30.9821 45.1012 31.0132C45.1308 31.0443 45.1456 31.0843 45.1456 31.1332V31.6266C45.1456 31.671 45.1308 31.7088 45.1012 31.7399C45.0716 31.771 45.0335 31.7866 44.987 31.7866H43.82V35.4732C43.82 35.5177 43.8052 35.5555 43.7756 35.5866C43.746 35.6177 43.7079 35.6332 43.6614 35.6332H43.0779Z" fill="#005FFF"/>
<path d="M48.4232 35.6999C48.0469 35.6999 47.7234 35.6355 47.4528 35.5066C47.1822 35.3732 46.9708 35.171 46.8185 34.8999C46.6663 34.6243 46.5839 34.2821 46.5712 33.8732C46.567 33.6821 46.5648 33.4932 46.5648 33.3066C46.5648 33.1199 46.567 32.9288 46.5712 32.7332C46.5839 32.3288 46.6684 31.991 46.8249 31.7199C46.9813 31.4488 47.1949 31.2443 47.4655 31.1066C47.7403 30.9688 48.0596 30.8999 48.4232 30.8999C48.7868 30.8999 49.1061 30.9688 49.3809 31.1066C49.6558 31.2443 49.8714 31.4488 50.0279 31.7199C50.1843 31.991 50.2689 32.3288 50.2816 32.7332C50.29 32.9288 50.2942 33.1199 50.2942 33.3066C50.2942 33.4932 50.29 33.6821 50.2816 33.8732C50.2689 34.2821 50.1864 34.6243 50.0342 34.8999C49.882 35.171 49.6684 35.3732 49.3936 35.5066C49.123 35.6355 48.7995 35.6999 48.4232 35.6999ZM48.4232 34.9332C48.698 34.9332 48.9221 34.8488 49.0955 34.6799C49.2689 34.5066 49.3619 34.2266 49.3746 33.8399C49.383 33.6443 49.3873 33.4643 49.3873 33.2999C49.3873 33.131 49.383 32.951 49.3746 32.7599C49.3661 32.5021 49.3196 32.2932 49.235 32.1332C49.1547 31.9688 49.0448 31.851 48.9052 31.7799C48.7657 31.7043 48.605 31.6666 48.4232 31.6666C48.2456 31.6666 48.087 31.7043 47.9475 31.7799C47.808 31.851 47.6959 31.9688 47.6114 32.1332C47.531 32.2932 47.4866 32.5021 47.4782 32.7599C47.4739 32.951 47.4718 33.131 47.4718 33.2999C47.4718 33.4643 47.4739 33.6443 47.4782 33.8399C47.4909 34.2266 47.5839 34.5066 47.7572 34.6799C47.9306 34.8488 48.1526 34.9332 48.4232 34.9332Z" fill="#005FFF"/>
<path d="M52.2878 35.6332C52.2455 35.6332 52.2095 35.6177 52.1799 35.5866C52.1503 35.5555 52.1355 35.5177 52.1355 35.4732V31.1332C52.1355 31.0843 52.1503 31.0443 52.1799 31.0132C52.2095 30.9821 52.2455 30.9666 52.2878 30.9666H52.8459C52.8924 30.9666 52.9305 30.9821 52.9601 31.0132C52.9897 31.0443 53.0045 31.0843 53.0045 31.1332V32.6932L54.4379 31.0866C54.4548 31.0643 54.4823 31.0399 54.5203 31.0132C54.5626 30.9821 54.6176 30.9666 54.6852 30.9666H55.3131C55.347 30.9666 55.3766 30.9799 55.4019 31.0066C55.4315 31.0332 55.4463 31.0666 55.4463 31.1066C55.4463 31.1377 55.4379 31.1643 55.421 31.1866L53.6768 33.1999L55.5415 35.4066C55.5626 35.4332 55.5732 35.4621 55.5732 35.4932C55.5732 35.5332 55.5584 35.5666 55.5288 35.5932C55.5034 35.6199 55.4738 35.6332 55.44 35.6332H54.7867C54.7148 35.6332 54.6578 35.6177 54.6155 35.5866C54.5774 35.551 54.552 35.5266 54.5394 35.5132L53.0045 33.7466V35.4732C53.0045 35.5177 52.9897 35.5555 52.9601 35.5866C52.9305 35.6177 52.8924 35.6332 52.8459 35.6332H52.2878Z" fill="#005FFF"/>
<path d="M57.3037 35.6332C57.2614 35.6332 57.2254 35.6177 57.1958 35.5866C57.1662 35.5555 57.1514 35.5177 57.1514 35.4732V31.1332C57.1514 31.0843 57.1662 31.0443 57.1958 31.0132C57.2254 30.9821 57.2614 30.9666 57.3037 30.9666H60.0944C60.1409 30.9666 60.1789 30.9821 60.2085 31.0132C60.2381 31.0443 60.2529 31.0843 60.2529 31.1332V31.5732C60.2529 31.6177 60.2381 31.6555 60.2085 31.6866C60.1789 31.7177 60.1409 31.7332 60.0944 31.7332H58.0077V32.9132H59.9548C60.0013 32.9132 60.0394 32.9288 60.069 32.9599C60.0986 32.9866 60.1134 33.0243 60.1134 33.0732V33.4866C60.1134 33.5355 60.0986 33.5755 60.069 33.6066C60.0394 33.6332 60.0013 33.6466 59.9548 33.6466H58.0077V34.8666H60.1451C60.1916 34.8666 60.2297 34.8821 60.2593 34.9132C60.2889 34.9443 60.3037 34.9843 60.3037 35.0332V35.4732C60.3037 35.5177 60.2889 35.5555 60.2593 35.5866C60.2297 35.6177 60.1916 35.6332 60.1451 35.6332H57.3037Z" fill="#005FFF"/>
<path d="M62.2576 35.6332C62.2153 35.6332 62.1794 35.6177 62.1498 35.5866C62.1202 35.5555 62.1054 35.5177 62.1054 35.4732V31.1332C62.1054 31.0843 62.1202 31.0443 62.1498 31.0132C62.1794 30.9821 62.2153 30.9666 62.2576 30.9666H62.746C62.8052 30.9666 62.8474 30.9821 62.8728 31.0132C62.9024 31.0399 62.9214 31.0599 62.9299 31.0732L64.7565 34.0599V31.1332C64.7565 31.0843 64.7692 31.0443 64.7946 31.0132C64.8242 30.9821 64.8623 30.9666 64.9088 30.9666H65.4415C65.488 30.9666 65.5261 30.9821 65.5557 31.0132C65.5853 31.0443 65.6001 31.0843 65.6001 31.1332V35.4666C65.6001 35.5155 65.5853 35.5555 65.5557 35.5866C65.5261 35.6177 65.4902 35.6332 65.4479 35.6332H64.9532C64.894 35.6332 64.8517 35.6177 64.8263 35.5866C64.8009 35.5555 64.7819 35.5355 64.7692 35.5266L62.9489 32.6066V35.4732C62.9489 35.5177 62.9341 35.5555 62.9045 35.5866C62.8749 35.6177 62.8369 35.6332 62.7904 35.6332H62.2576Z" fill="#005FFF"/>
</g>
<path d="M6.0055 8.72871C5.35289 8.07609 4.27748 8.11509 3.73939 8.86494C1.38669 12.1435 0 16.1611 0 20.4968C0 24.885 1.4204 28.9483 3.82507 32.2487C4.32216 32.9309 5.30527 32.9667 5.90217 32.3698C6.50515 31.7668 7.49277 31.8174 8.09628 32.4199C8.17122 32.4947 8.24687 32.5688 8.3232 32.6422C8.83046 33.1299 9.62954 33.0888 10.1271 32.5913C10.7017 32.0167 10.6443 31.0734 10.0677 30.501C10.0129 30.4465 9.95848 30.3916 9.90453 30.3363C9.38496 29.8034 8.52065 29.7513 7.99436 30.2776C7.47462 30.7973 6.61688 30.7597 6.19457 30.1581C4.27361 27.4217 3.14392 24.0884 3.14392 20.4968C3.14392 16.9316 4.2571 13.622 6.15244 10.8973C6.61937 10.226 6.5837 9.3069 6.0055 8.72871Z" fill="#005FFF"/>
<path d="M31.9154 8.59201C32.5066 9.18379 33.48 9.23836 34.0715 8.64688L34.0825 8.63599L34.1796 8.53885L34.1909 8.52741C34.7604 7.95793 34.8002 7.04131 34.2349 6.46771C33.8325 6.05948 33.4129 5.66841 32.9767 5.29523C29.481 2.30701 24.9462 0.5 19.9968 0.5C15.661 0.5 11.6434 1.88675 8.36474 4.23954C7.615 4.77756 7.57601 5.85281 8.22853 6.50533C8.80678 7.08358 9.72603 7.11912 10.3973 6.65202C13.122 4.75597 16.4315 3.64392 19.9968 3.64392C24.0794 3.64392 27.8267 5.1021 30.746 7.52591C31.1481 7.85944 31.5342 8.21112 31.9032 8.57982L31.9093 8.58594L31.9154 8.59201Z" fill="#005FFF"/>
<path d="M31.9564 34.6796C32.5323 35.2555 33.4593 35.2958 34.0389 34.7236C34.0653 34.6975 34.0917 34.6713 34.118 34.6451C34.1226 34.6406 34.1271 34.6361 34.1316 34.6316C34.1361 34.6271 34.1406 34.6226 34.1451 34.618C34.1713 34.5917 34.1975 34.5653 34.2236 34.5389C34.7958 33.9593 34.7555 33.0323 34.1796 32.4564L34.0915 32.3683C34.0901 32.3669 34.0887 32.3655 34.0873 32.3641L34.0824 32.3592L31.0141 29.2909C32.9454 26.8791 34.0996 23.8205 34.0996 20.4969C34.0996 17.8117 33.3462 15.3014 32.0382 13.1634C31.5416 12.3517 30.4257 12.2928 29.7529 12.9657C29.1913 13.5272 29.1396 14.4105 29.532 15.1009C30.4382 16.6952 30.9557 18.5373 30.9557 20.4969C30.9557 22.9507 30.1443 25.2218 28.7744 27.0512L26.4689 24.7457C27.2728 23.5255 27.7414 22.0659 27.7414 20.4969C27.7414 19.6634 27.6092 18.8612 27.3647 18.1094C27.0341 17.0928 25.7607 16.9578 25.0048 17.7137C24.501 18.2175 24.3993 18.9806 24.5253 19.682C24.5728 19.9465 24.5975 20.2188 24.5975 20.4969C24.5975 21.1916 24.4433 21.8503 24.1648 22.4416C23.7097 23.4192 22.9192 24.2097 21.9431 24.6663C21.3518 24.9433 20.693 25.099 19.9969 25.099C19.7172 25.099 19.4437 25.0739 19.1783 25.0258C18.4782 24.8991 17.717 25.0015 17.2139 25.5046C16.4571 26.2614 16.5925 27.5361 17.6104 27.8666C18.3625 28.1108 19.1647 28.2429 19.9969 28.2429C21.5644 28.2429 23.0255 27.7743 24.2457 26.9689L26.5512 29.2744C24.7218 30.6443 22.4522 31.4557 19.9969 31.4557C18.0361 31.4557 16.1947 30.9382 14.6008 30.0321C13.9104 29.6396 13.0272 29.6913 12.4657 30.2528C11.7928 30.9257 11.8517 32.0416 12.6635 32.538C14.8013 33.8454 17.3131 34.5996 19.9969 34.5996C23.319 34.5996 26.3791 33.4439 28.7909 31.5141L31.855 34.5782C31.8564 34.5796 31.8578 34.581 31.8592 34.5824L31.8641 34.5873L31.9564 34.6796Z" fill="#005FFF"/>
<path d="M11.2044 9.48122C13.6162 7.54995 16.6748 6.39568 19.9969 6.39568C22.6821 6.39568 25.1943 7.14913 27.3323 8.45706C28.144 8.95362 28.2027 10.0695 27.5298 10.7423C26.9682 11.3039 26.0848 11.3556 25.3942 10.9632C23.7999 10.0571 21.9576 9.5396 19.9969 9.5396C17.5417 9.5396 15.2735 10.351 13.4441 11.7209L15.7479 14.0249C16.968 13.2209 18.4294 12.7524 19.9969 12.7524C20.83 12.7524 21.633 12.8847 22.3859 13.1297C23.4029 13.4606 23.5376 14.7345 22.7813 15.4908C22.2782 15.9938 21.517 16.0966 20.8169 15.9698C20.5507 15.9215 20.2766 15.8963 19.9969 15.8963C19.3022 15.8963 18.6435 16.052 18.0521 16.329C17.076 16.7856 16.2856 17.576 15.8289 18.5522C15.552 19.1435 15.3963 19.8022 15.3963 20.4969C15.3963 20.7765 15.4215 21.0506 15.4697 21.3168C15.5965 22.017 15.4938 22.7783 14.9907 23.2814C14.2339 24.0382 12.9593 23.9027 12.6289 22.8848C12.3845 22.1322 12.2524 21.3293 12.2524 20.4969C12.2524 18.9295 12.7209 17.4684 13.5248 16.2483C12.3091 15.0327 10.2623 15.184 9.68078 16.8019C9.26573 17.9568 9.0396 19.2008 9.0396 20.4969C9.0396 22.3878 9.52088 24.1686 10.3679 25.723C10.7667 26.455 11.7484 26.5235 12.3378 25.9341L12.4056 25.8663C12.9835 25.2884 13.9456 25.3937 14.5235 25.9716C15.1014 26.5495 15.2067 27.5116 14.6288 28.0895L14.3977 28.3206C13.8502 28.8681 12.9746 28.9384 12.416 28.4025C12.3688 28.3572 12.322 28.3115 12.2756 28.2654C11.6734 27.6667 10.683 27.5891 10.0825 28.1896C9.49502 28.7771 8.52163 28.7256 8.07689 28.0238C6.69609 25.8447 5.89568 23.2615 5.89568 20.4969C5.89568 17.1749 7.05139 14.1179 8.98108 11.7046C9.63679 10.8842 10.3825 10.1369 11.2044 9.48122Z" fill="#005FFF"/>
</svg>
