<svg width="7" height="14" viewBox="0 0 7 14" fill="none" xmlns="http://www.w3.org/2000/svg">
<path fill-rule="evenodd" clip-rule="evenodd" d="M5.90325 11.9685C6.22134 12.1912 6.29864 12.6296 6.07589 12.9477C5.85315 13.2658 5.41472 13.3431 5.09663 13.1204L5.46842 12.5894C5.09662 13.1204 5.09651 13.1203 5.09639 13.1202L5.09605 13.12L5.09504 13.1193L5.09175 13.117L5.08019 13.1088C5.0703 13.1018 5.05608 13.0917 5.03784 13.0786C5.00135 13.0525 4.94871 13.0144 4.88221 12.9656C4.74927 12.8679 4.56065 12.7267 4.33484 12.5504C3.88428 12.1987 3.2806 11.7033 2.67419 11.1324C2.07099 10.5644 1.44729 9.90511 0.969426 9.22455C0.505091 8.56327 0.109315 7.78592 0.109315 6.99978C0.109315 6.2138 0.505133 5.43653 0.969437 4.77532C1.44729 4.09483 2.07098 3.43552 2.67417 2.86753C3.28057 2.29652 3.88424 1.80109 4.33479 1.44928C4.56059 1.27297 4.74922 1.13174 4.88215 1.03405C4.94865 0.985179 5.00129 0.947148 5.03778 0.921006C5.05602 0.907933 5.07023 0.897828 5.08012 0.890823L5.09169 0.882654L5.09497 0.880343L5.09633 0.879395C5.09645 0.879306 5.09656 0.87923 5.49994 1.45514L5.09656 0.87923C5.41463 0.65645 5.85307 0.733695 6.07585 1.05176C6.29859 1.36978 6.22141 1.80814 5.90346 2.03095C5.90342 2.03098 5.9035 2.03092 5.90346 2.03095L5.9014 2.0324L5.89286 2.03843C5.88501 2.04399 5.87291 2.05259 5.85682 2.06412C5.82464 2.08718 5.77657 2.12189 5.7149 2.16722C5.59148 2.25791 5.41389 2.39085 5.20025 2.55767C4.77189 2.89214 4.20369 3.35885 3.63821 3.89132C3.06953 4.42682 2.52134 5.01233 2.12029 5.58346C1.70568 6.17389 1.51556 6.65505 1.51556 6.99978C1.51556 7.34475 1.70572 7.82603 2.1203 8.41645C2.52134 8.9876 3.06951 9.57307 3.63819 10.1085C4.20365 10.6409 4.77185 11.1076 5.2002 11.442C5.41384 11.6088 5.59143 11.7417 5.71484 11.8323C5.77651 11.8777 5.82458 11.9124 5.85676 11.9354C5.87284 11.9469 5.88495 11.9555 5.8928 11.9611L5.90133 11.9671L5.90325 11.9685Z" fill="#2A3658"/>
</svg>
