<svg width="7" height="14" viewBox="0 0 7 14" fill="none" xmlns="http://www.w3.org/2000/svg">
<path fill-rule="evenodd" clip-rule="evenodd" d="M5.90344 11.9687C6.22153 12.1915 6.29882 12.6299 6.07608 12.948C5.85333 13.2661 5.4149 13.3434 5.09681 13.1206L5.46861 12.5897C5.0968 13.1206 5.0967 13.1205 5.09657 13.1205L5.09623 13.1202L5.09522 13.1195L5.09194 13.1172L5.08037 13.109C5.07048 13.102 5.05627 13.0919 5.03802 13.0789C5.00153 13.0527 4.94889 13.0147 4.88239 12.9658C4.74945 12.8682 4.56083 12.727 4.33502 12.5507C3.88446 12.1989 3.28078 11.7036 2.67437 11.1326C2.07117 10.5647 1.44747 9.90535 0.969609 9.2248C0.505274 8.56351 0.109498 7.78616 0.109498 7.00002C0.109498 6.21404 0.505317 5.43677 0.96962 4.77557C1.44747 4.09507 2.07116 3.43576 2.67435 2.86777C3.28075 2.29676 3.88442 1.80133 4.33497 1.44953C4.56078 1.27321 4.7494 1.13198 4.88233 1.03429C4.94883 0.985424 5.00147 0.947392 5.03796 0.92125C5.0562 0.908177 5.07042 0.898072 5.08031 0.891067L5.09187 0.882898L5.09516 0.880587L5.09651 0.879639C5.09664 0.87955 5.09674 0.879474 5.50012 1.45538L5.09674 0.879474C5.41481 0.656694 5.85325 0.733939 6.07603 1.052C6.29878 1.37002 6.22159 1.80838 5.90364 2.03119C5.9036 2.03122 5.90369 2.03116 5.90364 2.03119L5.90158 2.03264L5.89304 2.03867C5.8852 2.04423 5.87309 2.05284 5.857 2.06436C5.82482 2.08742 5.77676 2.12213 5.71508 2.16746C5.59167 2.25815 5.41408 2.39109 5.20043 2.55791C4.77208 2.89238 4.20387 3.3591 3.6384 3.89157C3.06971 4.42706 2.52152 5.01257 2.12047 5.58371C1.70587 6.17413 1.51575 6.65529 1.51575 7.00002C1.51575 7.345 1.70591 7.82628 2.12048 8.41669C2.52153 8.98785 3.0697 9.57332 3.63837 10.1088C4.20384 10.6412 4.77203 11.1078 5.20038 11.4422C5.41402 11.609 5.59161 11.7419 5.71502 11.8326C5.7767 11.8779 5.82476 11.9126 5.85694 11.9357C5.87303 11.9472 5.88513 11.9558 5.89298 11.9613L5.90151 11.9674L5.90344 11.9687Z" fill="#005FFF"/>
</svg>
