<svg width="144" height="156" viewBox="0 0 144 156" fill="none" xmlns="http://www.w3.org/2000/svg">
<g opacity="0.7" filter="url(#filter0_f_266_1373)">
<g filter="url(#filter1_f_266_1373)">
<ellipse cx="86.1866" cy="96.1451" rx="19.3165" ry="29.855" fill="#0447B7"/>
</g>
<ellipse cx="85.9734" cy="93.0831" rx="27.595" ry="29.855" fill="#CDCDCD"/>
<g filter="url(#filter2_ii_266_1373)">
<ellipse cx="85.9734" cy="90.0211" rx="27.595" ry="29.855" fill="#F3F3F3"/>
</g>
<g filter="url(#filter3_ii_266_1373)">
<path d="M74.852 81.585C74.2921 80.9791 73.3695 81.0153 72.9078 81.7115C70.8894 84.7552 69.6997 88.4849 69.6997 92.51C69.6997 96.5838 70.9183 100.356 72.9813 103.42C73.4078 104.053 74.2512 104.087 74.7633 103.532C75.2806 102.973 76.1279 103.02 76.6457 103.579C76.71 103.648 76.7749 103.717 76.8404 103.785C77.2756 104.238 77.9611 104.2 78.388 103.738C78.8809 103.205 78.8317 102.329 78.337 101.797C78.29 101.747 78.2433 101.696 78.197 101.645C77.7513 101.15 77.0098 101.102 76.5583 101.59C76.1124 102.073 75.3765 102.038 75.0142 101.479C73.3661 98.9388 72.3969 95.8443 72.3969 92.51C72.3969 89.2002 73.352 86.1278 74.978 83.5982C75.3786 82.975 75.348 82.1218 74.852 81.585Z" fill="#0C67FF"/>
<path d="M97.0806 81.458C97.5878 82.0074 98.4229 82.0582 98.9303 81.5091L98.9398 81.4989L99.0232 81.4087L99.033 81.398C99.5215 80.8694 99.5557 80.0185 99.0707 79.4861C98.7255 79.1071 98.3654 78.744 97.9912 78.3975C94.9921 75.6234 91.1017 73.9458 86.8554 73.9458C83.1356 73.9458 79.6888 75.2332 76.876 77.4174C76.2328 77.9169 76.1993 78.9151 76.7592 79.5209C77.2552 80.0577 78.0439 80.0907 78.6198 79.6571C80.9574 77.8969 83.7967 76.8645 86.8554 76.8645C90.358 76.8645 93.5728 78.2182 96.0774 80.4684C96.4224 80.778 96.7536 81.1045 97.0703 81.4468L97.0754 81.4525L97.0806 81.458Z" fill="#0C67FF"/>
<path d="M97.1158 105.677C97.6099 106.211 98.4052 106.249 98.9024 105.718C98.9556 105.661 99.0084 105.604 99.0609 105.546C99.5518 105.008 99.5172 104.147 99.0231 103.613L98.9493 103.533C98.9475 103.531 98.9457 103.529 98.9439 103.527L98.9398 103.523L96.3074 100.674C97.9643 98.435 98.9546 95.5956 98.9546 92.5101C98.9546 90.0172 98.3081 87.6868 97.186 85.7019C96.76 84.9484 95.8026 84.8938 95.2254 85.5184C94.7436 86.0397 94.6993 86.8597 95.0359 87.5006C95.8133 88.9807 96.2573 90.6909 96.2573 92.5101C96.2573 94.7881 95.5612 96.8965 94.3859 98.5949L92.408 96.4545C93.0977 95.3218 93.4997 93.9667 93.4997 92.5101C93.4997 91.7364 93.3862 90.9916 93.1765 90.2936C92.8929 89.3499 91.8004 89.2245 91.1519 89.9262C90.7196 90.394 90.6324 91.1025 90.7405 91.7536C90.7812 91.9991 90.8025 92.2519 90.8025 92.5101C90.8025 93.155 90.6702 93.7665 90.4313 94.3155C90.2381 94.7644 89.9746 95.1709 89.6562 95.5183C89.6524 95.5223 89.6486 95.5264 89.6448 95.5305C89.6411 95.5346 89.6373 95.5387 89.6336 95.5428C89.3132 95.8868 88.9386 96.1716 88.5252 96.3808C88.0179 96.638 87.4527 96.7825 86.8555 96.7825C86.6155 96.7825 86.3809 96.7592 86.1532 96.7146C85.5526 96.5969 84.8995 96.692 84.4679 97.159C83.8186 97.8616 83.9348 99.045 84.808 99.3518C85.4533 99.5786 86.1415 99.7012 86.8555 99.7012C88.2003 99.7012 89.4538 99.2662 90.5006 98.5184L92.4786 100.659C90.9091 101.931 88.9619 102.684 86.8555 102.684C85.1733 102.684 83.5935 102.203 82.226 101.362C81.6338 100.998 80.876 101.046 80.3943 101.567C79.8171 102.192 79.8676 103.228 80.5641 103.689C82.3981 104.902 84.553 105.603 86.8555 105.603C89.7056 105.603 92.3309 104.53 94.4001 102.738L97.0275 105.581C97.0291 105.583 97.0308 105.585 97.0325 105.587L97.0365 105.591L97.1158 105.677Z" fill="#0C67FF"/>
<path d="M79.3122 82.2836C81.3814 80.4907 84.0054 79.4191 86.8555 79.4191C89.1592 79.4191 91.3145 80.1186 93.1487 81.3328C93.8451 81.7938 93.8954 82.8297 93.3182 83.4543C92.8363 83.9757 92.0784 84.0237 91.486 83.6594C90.1182 82.8182 88.5376 82.3378 86.8555 82.3378C84.7491 82.3378 82.8032 83.0911 81.2337 84.3628L83.2102 86.5018C84.257 85.7554 85.5107 85.3204 86.8555 85.3204C87.5702 85.3204 88.2592 85.4433 88.905 85.6707C89.7776 85.9779 89.8931 87.1605 89.2443 87.8626C88.8127 88.3296 88.1596 88.425 87.559 88.3073C87.3306 88.2625 87.0954 88.2391 86.8555 88.2391C86.2595 88.2391 85.6944 88.3836 85.1871 88.6408C84.3496 89.0647 83.6715 89.7985 83.2797 90.7047C83.0421 91.2537 82.9085 91.8652 82.9085 92.5101C82.9085 92.7697 82.9302 93.0241 82.9715 93.2713C83.0803 93.9213 82.9922 94.628 82.5605 95.0951C81.9113 95.7977 80.8178 95.6719 80.5343 94.7269C80.3247 94.0282 80.2113 93.2829 80.2113 92.5101C80.2113 91.055 80.6133 89.6986 81.3029 88.5659C80.26 87.4373 78.5039 87.5779 78.0051 89.0798C77.649 90.1519 77.455 91.3068 77.455 92.5101C77.455 94.2656 77.8679 95.9188 78.5945 97.3618C78.9367 98.0413 79.7789 98.1049 80.2846 97.5578L80.3427 97.4949C80.8385 96.9584 81.664 97.0561 82.1598 97.5926C82.6556 98.1291 82.7459 99.0223 82.2501 99.5588L82.0518 99.7733C81.5821 100.282 80.8309 100.347 80.3516 99.8493C80.3112 99.8073 80.271 99.7649 80.2313 99.7221C79.7146 99.1663 78.8649 99.0942 78.3498 99.6517C77.8457 100.197 77.0106 100.149 76.6291 99.4977C75.4444 97.4747 74.7577 95.0766 74.7577 92.5101C74.7577 89.4261 75.7493 86.5881 77.4048 84.3477C77.9673 83.5861 78.6071 82.8923 79.3122 82.2836Z" fill="#0C67FF"/>
</g>
<g filter="url(#filter4_f_266_1373)">
<ellipse cx="59.2994" cy="66.2901" rx="19.3165" ry="29.855" fill="#957444"/>
</g>
<ellipse cx="58.3787" cy="63.2281" rx="27.595" ry="29.855" fill="#B8925B"/>
<ellipse cx="58.3787" cy="60.1661" rx="27.595" ry="29.855" fill="#E0B371"/>
<g filter="url(#filter5_ii_266_1373)">
<path d="M46.5502 50.1988C45.9903 49.5929 45.0677 49.6291 44.6061 50.3252C42.5876 53.369 41.3979 57.0987 41.3979 61.1238C41.3979 65.1976 42.6165 68.9698 44.6796 72.0337C45.106 72.6671 45.9495 72.7003 46.4616 72.1462C46.9789 71.5864 47.8262 71.6334 48.3439 72.1927C48.4082 72.2621 48.4731 72.3309 48.5386 72.399C48.9738 72.8518 49.6594 72.8137 50.0862 72.3518C50.5791 71.8184 50.53 70.9426 50.0353 70.4112C49.9882 70.3607 49.9416 70.3097 49.8953 70.2583C49.4495 69.7636 48.708 69.7153 48.2565 70.2039C47.8106 70.6864 47.0747 70.6514 46.7124 70.0929C45.0644 67.5525 44.0952 64.4581 44.0952 61.1238C44.0952 57.814 45.0502 54.7415 46.6763 52.212C47.0769 51.5888 47.0463 50.7355 46.5502 50.1988Z" fill="white"/>
<path d="M68.7789 50.0718C69.286 50.6211 70.1211 50.6719 70.6285 50.1229L70.6381 50.1127L70.7214 50.0225L70.7312 50.0118C71.2197 49.4832 71.2539 48.6323 70.7689 48.0998C70.4237 47.7208 70.0637 47.3577 69.6894 47.0113C66.6903 44.2371 62.7999 42.5596 58.5537 42.5596C54.8339 42.5596 51.3871 43.847 48.5742 46.0312C47.931 46.5307 47.8976 47.5289 48.4574 48.1347C48.9535 48.6715 49.7421 48.7045 50.318 48.2709C52.6556 46.5106 55.4949 45.4783 58.5537 45.4783C62.0562 45.4783 65.2711 46.832 67.7757 49.0821C68.1206 49.3918 68.4519 49.7183 68.7685 50.0606L68.7737 50.0662L68.7789 50.0718Z" fill="white"/>
<path d="M68.814 74.2905C69.3081 74.8251 70.1034 74.8626 70.6007 74.3314C70.6538 74.2746 70.7067 74.2174 70.7592 74.1599C71.25 73.6218 71.2154 72.7612 70.7214 72.2266L70.6475 72.1467C70.6457 72.1447 70.6439 72.1427 70.6421 72.1408L70.638 72.1364L68.0056 69.2879C69.6625 67.0488 70.6528 64.2094 70.6528 61.1239C70.6528 58.631 70.0064 56.3005 68.8842 54.3157C68.4582 53.5622 67.5008 53.5075 66.9236 54.1322C66.4418 54.6535 66.3975 55.4735 66.7342 56.1144C67.5116 57.5945 67.9555 59.3047 67.9555 61.1239C67.9555 63.4018 67.2594 65.5103 66.0842 67.2086L64.1062 65.0683C64.7959 63.9355 65.1979 62.5804 65.1979 61.1239C65.1979 60.3501 65.0845 59.6054 64.8747 58.9074C64.5911 57.9637 63.4986 57.8383 62.8502 58.54C62.4179 59.0078 62.3306 59.7162 62.4387 60.3673C62.4795 60.6129 62.5007 60.8657 62.5007 61.1239C62.5007 61.7688 62.3684 62.3803 62.1295 62.9293C61.9364 63.3782 61.6728 63.7846 61.3545 64.132C61.3506 64.1361 61.3468 64.1402 61.3431 64.1442C61.3393 64.1483 61.3355 64.1524 61.3318 64.1566C61.0115 64.5005 60.6369 64.7853 60.2234 64.9946C59.7161 65.2517 59.151 65.3963 58.5537 65.3963C58.3138 65.3963 58.0792 65.3729 57.8515 65.3283C57.2508 65.2107 56.5978 65.3057 56.1661 65.7728C55.5169 66.4754 55.633 67.6588 56.5063 67.9656C57.1515 68.1923 57.8398 68.315 58.5537 68.315C59.8985 68.315 61.1521 67.8799 62.1989 67.1322L64.1768 69.2726C62.6073 70.5443 60.6602 71.2976 58.5537 71.2976C56.8716 71.2976 55.2918 70.8172 53.9243 69.9759C53.332 69.6116 52.5743 69.6596 52.0925 70.1809C51.5153 70.8055 51.5658 71.8415 52.2623 72.3024C54.0963 73.516 56.2513 74.2163 58.5537 74.2163C61.4038 74.2163 64.0291 73.1433 66.0983 71.3518L68.7257 74.1949C68.7274 74.1967 68.729 74.1985 68.7307 74.2003L68.7348 74.2047L68.814 74.2905Z" fill="white"/>
<path d="M51.0105 50.8974C53.0796 49.1045 55.7037 48.0329 58.5537 48.0329C60.8574 48.0329 63.0128 48.7323 64.8469 49.9466C65.5433 50.4076 65.5936 51.4435 65.0164 52.0681C64.5346 52.5895 63.7767 52.6375 63.1842 52.2731C61.8164 51.432 60.2359 50.9516 58.5537 50.9516C56.4473 50.9516 54.5015 51.7049 52.9319 52.9766L54.9084 55.1155C55.9552 54.3692 57.209 53.9342 58.5537 53.9342C59.2685 53.9342 59.9574 54.0571 60.6033 54.2845C61.4758 54.5917 61.5914 55.7743 60.9426 56.4764C60.511 56.9434 59.8579 57.0388 59.2573 56.9211C59.0288 56.8763 58.7937 56.8529 58.5537 56.8529C57.9578 56.8529 57.3926 56.9974 56.8853 57.2545C56.0479 57.6784 55.3697 58.4123 54.978 59.3184C54.7403 59.8674 54.6068 60.479 54.6068 61.1239C54.6068 61.3835 54.6284 61.6379 54.6698 61.8851C54.7786 62.535 54.6904 63.2418 54.2588 63.7089C53.6095 64.4114 52.516 64.2857 52.2325 63.3407C52.0229 62.642 51.9095 61.8966 51.9095 61.1239C51.9095 59.6688 52.3115 58.3124 53.0011 57.1797C51.9582 56.0511 50.2022 56.1916 49.7033 57.6936C49.3472 58.7657 49.1532 59.9206 49.1532 61.1239C49.1532 62.8793 49.5661 64.5325 50.2928 65.9756C50.6349 66.6551 51.4772 66.7187 51.9828 66.1715L52.041 66.1086C52.5368 65.5721 53.3622 65.6698 53.858 66.2063C54.3538 66.7428 54.4441 67.6361 53.9483 68.1726L53.75 68.3871C53.2804 68.8953 52.5292 68.9606 52.0499 68.4631C52.0094 68.4211 51.9693 68.3787 51.9295 68.3359C51.4128 67.78 50.5632 67.708 50.048 68.2654C49.5439 68.8109 48.7088 68.7631 48.3273 68.1115C47.1427 66.0885 46.456 63.6904 46.456 61.1239C46.456 58.0399 47.4475 55.2019 49.103 52.9614C49.6656 52.1998 50.3054 51.5061 51.0105 50.8974Z" fill="white"/>
</g>
</g>
<g opacity="0.5" filter="url(#filter6_f_266_1373)">
<ellipse cx="92.721" cy="83.2594" rx="23.8807" ry="31.8619" fill="#0447B7"/>
</g>
<ellipse cx="92.4581" cy="79.9918" rx="34.1153" ry="31.8619" fill="#CDCDCD"/>
<g filter="url(#filter7_ii_266_1373)">
<ellipse cx="92.4581" cy="76.7237" rx="34.1153" ry="31.8619" fill="#F3F3F3"/>
</g>
<g filter="url(#filter8_ii_266_1373)">
<path d="M78.708 67.7206C78.0159 67.074 76.8752 67.1126 76.3045 67.8556C73.8092 71.1039 72.3384 75.0843 72.3384 79.38C72.3384 83.7276 73.8449 87.7534 76.3954 91.0233C76.9226 91.6992 77.9654 91.7347 78.5984 91.1433C79.238 90.5459 80.2855 90.596 80.9256 91.1929C81.0051 91.267 81.0853 91.3405 81.1663 91.4132C81.7043 91.8964 82.5518 91.8557 83.0796 91.3627C83.689 90.7935 83.6282 89.8589 83.0166 89.2917C82.9584 89.2378 82.9007 89.1834 82.8435 89.1286C82.2924 88.6006 81.3757 88.549 80.8175 89.0705C80.2662 89.5854 79.3565 89.5481 78.9086 88.952C76.8711 86.2409 75.6729 82.9384 75.6729 79.38C75.6729 75.8477 76.8536 72.5687 78.8639 69.8691C79.3591 69.2041 79.3213 68.2934 78.708 67.7206Z" fill="#0C67FF"/>
<path d="M106.189 67.5851C106.816 68.1713 107.848 68.2256 108.476 67.6396L108.488 67.6287L108.591 67.5325L108.603 67.521C109.207 66.9569 109.249 66.0488 108.649 65.4806C108.223 65.0761 107.777 64.6886 107.315 64.3188C103.607 61.3582 98.7973 59.5679 93.5478 59.5679C88.949 59.5679 84.6878 60.9418 81.2103 63.2729C80.4151 63.8059 80.3738 64.8712 81.0659 65.5177C81.6792 66.0906 82.6542 66.1259 83.3661 65.6631C86.2561 63.7845 89.7663 62.6828 93.5478 62.6828C97.8779 62.6828 101.852 64.1275 104.949 66.5289C105.375 66.8594 105.785 67.2078 106.176 67.5731L106.183 67.5791L106.189 67.5851Z" fill="#0C67FF"/>
<path d="M106.233 93.4318C106.843 94.0024 107.827 94.0423 108.441 93.4754C108.507 93.4148 108.572 93.3538 108.637 93.2924C109.244 92.7181 109.201 91.7997 108.591 91.2291L108.499 91.1438C108.497 91.1417 108.495 91.1396 108.493 91.1375L108.487 91.1329L105.233 88.0929C107.281 85.7033 108.506 82.673 108.506 79.3801C108.506 76.7197 107.707 74.2325 106.319 72.1143C105.793 71.3101 104.609 71.2518 103.895 71.9184C103.3 72.4747 103.245 73.3499 103.661 74.0339C104.622 75.6135 105.171 77.4386 105.171 79.3801C105.171 81.8112 104.311 84.0613 102.858 85.8739L100.412 83.5896C101.265 82.3808 101.762 80.9346 101.762 79.3801C101.762 78.5543 101.622 77.7595 101.362 77.0146C101.012 76.0075 99.6611 75.8737 98.8594 76.6225C98.325 77.1218 98.2172 77.8778 98.3508 78.5727C98.4012 78.8347 98.4274 79.1046 98.4274 79.3801C98.4274 80.0683 98.2639 80.721 97.9685 81.3069C97.7297 81.786 97.4039 82.2197 97.0103 82.5905C97.0056 82.5948 97.0009 82.5991 96.9962 82.6035C96.9916 82.6078 96.9869 82.6122 96.9823 82.6166C96.5863 82.9837 96.1232 83.2877 95.6121 83.511C94.9849 83.7854 94.2862 83.9397 93.5478 83.9397C93.2512 83.9397 92.9612 83.9148 92.6797 83.8672C91.937 83.7416 91.1297 83.8431 90.5961 84.3415C89.7934 85.0913 89.937 86.3543 91.0166 86.6817C91.8143 86.9237 92.6652 87.0546 93.5478 87.0546C95.2104 87.0546 96.7601 86.5903 98.0543 85.7923L100.5 88.0766C98.5592 89.4338 96.152 90.2377 93.5479 90.2377C91.4682 90.2377 89.5151 89.725 87.8245 88.8272C87.0923 88.4384 86.1555 88.4896 85.56 89.0459C84.8463 89.7126 84.9088 90.8182 85.7698 91.31C88.0372 92.6053 90.7013 93.3526 93.5479 93.3526C97.0714 93.3526 100.317 92.2075 102.875 90.2955L106.123 93.3297C106.125 93.3317 106.127 93.3336 106.129 93.3355L106.135 93.3402L106.233 93.4318Z" fill="#0C67FF"/>
<path d="M84.2222 68.4661C86.7803 66.5527 90.0243 65.4091 93.5479 65.4091C96.3959 65.4091 99.0605 66.1556 101.328 67.4514C102.189 67.9434 102.251 69.0489 101.538 69.7156C100.942 70.272 100.005 70.3232 99.2725 69.9344C97.5815 69.0367 95.6275 68.524 93.5479 68.524C90.9437 68.524 88.5381 69.3279 86.5977 70.6851L89.0412 72.9678C90.3353 72.1713 91.8853 71.7071 93.5478 71.7071C94.4314 71.7071 95.2832 71.8382 96.0817 72.0809C97.1604 72.4088 97.3032 73.6709 96.5011 74.4202C95.9675 74.9186 95.1601 75.0204 94.4176 74.8948C94.1352 74.847 93.8445 74.822 93.5478 74.822C92.8111 74.822 92.1124 74.9762 91.4852 75.2506C90.4499 75.703 89.6115 76.4862 89.1272 77.4533C88.8334 78.0392 88.6683 78.6918 88.6683 79.3801C88.6683 79.6571 88.695 79.9287 88.7462 80.1924C88.8807 80.8861 88.7717 81.6404 88.2381 82.1389C87.4354 82.8886 86.0835 82.7545 85.733 81.7459C85.4739 81.0002 85.3337 80.2048 85.3337 79.3801C85.3337 77.8272 85.8306 76.3796 86.6832 75.1708C85.3939 73.9663 83.2229 74.1163 82.6062 75.7192C82.166 76.8634 81.9261 78.0959 81.9261 79.3801C81.9261 81.2535 82.4366 83.0179 83.3349 84.558C83.7579 85.2831 84.7992 85.351 85.4243 84.767L85.4962 84.6999C86.1091 84.1274 87.1296 84.2316 87.7426 84.8042C88.3555 85.3768 88.4671 86.33 87.8542 86.9026L87.6091 87.1316C87.0285 87.6739 86.0998 87.7437 85.5072 87.2126C85.4572 87.1678 85.4076 87.1225 85.3584 87.0769C84.7196 86.4837 83.6692 86.4068 83.0323 87.0017C82.4092 87.5838 81.3767 87.5328 80.905 86.8374C79.4405 84.6785 78.5916 82.1192 78.5916 79.3801C78.5916 76.0888 79.8174 73.06 81.8641 70.669C82.5595 69.8562 83.3505 69.1158 84.2222 68.4661Z" fill="#0C67FF"/>
</g>
<g filter="url(#filter9_f_266_1373)">
<ellipse cx="59.4803" cy="51.3976" rx="23.8807" ry="31.8619" fill="#957444"/>
</g>
<ellipse cx="58.3419" cy="48.13" rx="34.1153" ry="31.8619" fill="#B8925B"/>
<ellipse cx="58.3419" cy="44.8619" rx="34.1153" ry="31.8619" fill="#E0B371"/>
<g filter="url(#filter10_ii_266_1373)">
<path d="M43.7168 34.224C43.0246 33.5774 41.884 33.616 41.3133 34.359C38.8179 37.6073 37.3472 41.5877 37.3472 45.8834C37.3472 50.231 38.8537 54.2569 41.4042 57.5267C41.9314 58.2027 42.9741 58.2381 43.6072 57.6467C44.2468 57.0493 45.2943 57.0995 45.9344 57.6963C46.0139 57.7705 46.0941 57.8439 46.1751 57.9166C46.7131 58.3998 47.5606 58.3591 48.0884 57.8662C48.6977 57.2969 48.637 56.3623 48.0254 55.7952C47.9672 55.7412 47.9095 55.6868 47.8523 55.632C47.3012 55.104 46.3845 55.0525 45.8263 55.5739C45.275 56.0888 44.3653 56.0515 43.9174 55.4555C41.8799 52.7443 40.6817 49.4419 40.6817 45.8834C40.6817 42.3511 41.8624 39.0721 43.8727 36.3726C44.3679 35.7075 44.3301 34.7969 43.7168 34.224Z" fill="white"/>
<path d="M71.1978 34.0885C71.8248 34.6748 72.8573 34.729 73.4845 34.143L73.4963 34.1321L73.5994 34.0359L73.6115 34.0245C74.2154 33.4603 74.2577 32.5522 73.6581 31.984C73.2313 31.5795 72.7862 31.192 72.3235 30.8222C68.6158 27.8616 63.8061 26.0713 58.5566 26.0713C53.9578 26.0713 49.6966 27.4452 46.2191 29.7763C45.4239 30.3093 45.3826 31.3747 46.0747 32.0212C46.688 32.5941 47.663 32.6293 48.3749 32.1665C51.2649 30.2879 54.7751 29.1862 58.5566 29.1862C62.8867 29.1862 66.8612 30.6309 69.9576 33.0323C70.384 33.3628 70.7935 33.7112 71.185 34.0766L71.1914 34.0825L71.1978 34.0885Z" fill="white"/>
<path d="M71.2413 59.9352C71.8521 60.5058 72.8353 60.5457 73.4501 59.9788C73.5158 59.9182 73.5811 59.8572 73.646 59.7958C74.2529 59.2216 74.2101 58.3031 73.5993 57.7325L73.508 57.6473C73.5058 57.6452 73.5036 57.6431 73.5013 57.641L73.4963 57.6363L70.2419 54.5963C72.2903 52.2067 73.5145 49.1764 73.5145 45.8835C73.5145 43.2231 72.7154 40.7359 71.3281 38.6177C70.8014 37.8135 69.6178 37.7552 68.9042 38.4218C68.3086 38.9782 68.2538 39.8533 68.67 40.5373C69.6311 42.1169 70.18 43.942 70.18 45.8835C70.18 48.3146 69.3193 50.5647 67.8664 52.3773L65.4211 50.093C66.2737 48.8842 66.7708 47.438 66.7708 45.8835C66.7708 45.0577 66.6305 44.263 66.3712 43.518C66.0206 42.5109 64.6699 42.3771 63.8682 43.126C63.3338 43.6252 63.226 44.3812 63.3596 45.0761C63.41 45.3381 63.4362 45.608 63.4362 45.8835C63.4362 46.5717 63.2726 47.2244 62.9773 47.8103C62.7385 48.2894 62.4127 48.7231 62.0191 49.0939C62.0144 49.0982 62.0097 49.1025 62.005 49.1069C62.0004 49.1113 61.9957 49.1157 61.9911 49.1201C61.5951 49.4871 61.132 49.7911 60.6209 50.0144C59.9937 50.2888 59.295 50.4431 58.5566 50.4431C58.26 50.4431 57.9699 50.4182 57.6885 50.3706C56.9458 50.245 56.1385 50.3465 55.6049 50.845C54.8022 51.5947 54.9458 52.8577 56.0254 53.1852C56.8231 53.4271 57.674 53.558 58.5566 53.558C60.2191 53.558 61.7689 53.0937 63.063 52.2957L65.5084 54.58C63.568 55.9372 61.1608 56.7411 58.5566 56.7411C56.477 56.7411 54.5239 56.2284 52.8333 55.3306C52.1011 54.9418 51.1643 54.993 50.5688 55.5493C49.8551 56.216 49.9176 57.3216 50.7786 57.8134C53.046 59.1087 55.7101 59.856 58.5566 59.856C62.0802 59.856 65.3258 58.7109 67.8839 56.799L71.1321 59.8331C71.1341 59.8351 71.1362 59.837 71.1383 59.839L71.1433 59.8436L71.2413 59.9352Z" fill="white"/>
<path d="M49.231 34.9696C51.7891 33.0561 55.0331 31.9125 58.5566 31.9125C61.4047 31.9125 64.0693 32.659 66.3368 33.9549C67.1977 34.4468 67.26 35.5524 66.5463 36.219C65.9507 36.7754 65.0137 36.8266 64.2813 36.4378C62.5903 35.5401 60.6362 35.0274 58.5566 35.0274C55.9525 35.0274 53.5469 35.8313 51.6065 37.1885L54.05 39.4713C55.3441 38.6747 56.8941 38.2105 58.5566 38.2105C59.4402 38.2105 60.292 38.3416 61.0905 38.5843C62.1692 38.9122 62.312 40.1743 61.5099 40.9236C60.9763 41.422 60.1689 41.5238 59.4264 41.3982C59.144 41.3504 58.8533 41.3254 58.5566 41.3254C57.8198 41.3254 57.1212 41.4796 56.494 41.7541C55.4587 42.2065 54.6203 42.9896 54.136 43.9567C53.8422 44.5426 53.6771 45.1953 53.6771 45.8835C53.6771 46.1606 53.7038 46.4321 53.755 46.6959C53.8894 47.3895 53.7805 48.1438 53.2468 48.6423C52.4442 49.3921 51.0923 49.2579 50.7418 48.2494C50.4827 47.5036 50.3425 46.7082 50.3425 45.8835C50.3425 44.3306 50.8394 42.883 51.692 41.6742C50.4027 40.4698 48.2317 40.6197 47.615 42.2227C47.1748 43.3668 46.9349 44.5993 46.9349 45.8835C46.9349 47.757 47.4454 49.5213 48.3437 51.0614C48.7667 51.7866 49.808 51.8544 50.4331 51.2705L50.505 51.2034C51.1179 50.6308 52.1384 50.735 52.7514 51.3076C53.3643 51.8802 53.4759 52.8335 52.863 53.406L52.6179 53.635C52.0372 54.1774 51.1085 54.2471 50.516 53.7161C50.466 53.6712 50.4163 53.626 50.3672 53.5803C49.7284 52.9871 48.678 52.9102 48.0411 53.5051C47.4179 54.0872 46.3855 54.0362 45.9138 53.3409C44.4493 51.1819 43.6003 48.6226 43.6003 45.8835C43.6003 42.5922 44.8261 39.5634 46.8728 37.1724C47.5683 36.3596 48.3593 35.6192 49.231 34.9696Z" fill="white"/>
</g>
<defs>
<filter id="filter0_f_266_1373" x="0.783691" y="0.311035" width="142.785" height="155.689" filterUnits="userSpaceOnUse" color-interpolation-filters="sRGB">
<feFlood flood-opacity="0" result="BackgroundImageFix"/>
<feBlend mode="normal" in="SourceGraphic" in2="BackgroundImageFix" result="shape"/>
<feGaussianBlur stdDeviation="15" result="effect1_foregroundBlur_266_1373"/>
</filter>
<filter id="filter1_f_266_1373" x="57.8701" y="57.29" width="56.6328" height="77.71" filterUnits="userSpaceOnUse" color-interpolation-filters="sRGB">
<feFlood flood-opacity="0" result="BackgroundImageFix"/>
<feBlend mode="normal" in="SourceGraphic" in2="BackgroundImageFix" result="shape"/>
<feGaussianBlur stdDeviation="4.5" result="effect1_foregroundBlur_266_1373"/>
</filter>
<filter id="filter2_ii_266_1373" x="56.3784" y="60.166" width="59.1899" height="61.71" filterUnits="userSpaceOnUse" color-interpolation-filters="sRGB">
<feFlood flood-opacity="0" result="BackgroundImageFix"/>
<feBlend mode="normal" in="SourceGraphic" in2="BackgroundImageFix" result="shape"/>
<feColorMatrix in="SourceAlpha" type="matrix" values="0 0 0 0 0 0 0 0 0 0 0 0 0 0 0 0 0 0 127 0" result="hardAlpha"/>
<feOffset dx="2" dy="4"/>
<feGaussianBlur stdDeviation="1"/>
<feComposite in2="hardAlpha" operator="arithmetic" k2="-1" k3="1"/>
<feColorMatrix type="matrix" values="0 0 0 0 1 0 0 0 0 1 0 0 0 0 1 0 0 0 0.2 0"/>
<feBlend mode="normal" in2="shape" result="effect1_innerShadow_266_1373"/>
<feColorMatrix in="SourceAlpha" type="matrix" values="0 0 0 0 0 0 0 0 0 0 0 0 0 0 0 0 0 0 127 0" result="hardAlpha"/>
<feOffset dx="-2"/>
<feGaussianBlur stdDeviation="3"/>
<feComposite in2="hardAlpha" operator="arithmetic" k2="-1" k3="1"/>
<feColorMatrix type="matrix" values="0 0 0 0 1 0 0 0 0 1 0 0 0 0 1 0 0 0 0.2 0"/>
<feBlend mode="normal" in2="effect1_innerShadow_266_1373" result="effect2_innerShadow_266_1373"/>
</filter>
<filter id="filter3_ii_266_1373" x="69.6997" y="73.9458" width="29.7178" height="34.1514" filterUnits="userSpaceOnUse" color-interpolation-filters="sRGB">
<feFlood flood-opacity="0" result="BackgroundImageFix"/>
<feBlend mode="normal" in="SourceGraphic" in2="BackgroundImageFix" result="shape"/>
<feColorMatrix in="SourceAlpha" type="matrix" values="0 0 0 0 0 0 0 0 0 0 0 0 0 0 0 0 0 0 127 0" result="hardAlpha"/>
<feOffset dy="2"/>
<feGaussianBlur stdDeviation="3"/>
<feComposite in2="hardAlpha" operator="arithmetic" k2="-1" k3="1"/>
<feColorMatrix type="matrix" values="0 0 0 0 1 0 0 0 0 1 0 0 0 0 1 0 0 0 0.1 0"/>
<feBlend mode="normal" in2="shape" result="effect1_innerShadow_266_1373"/>
<feColorMatrix in="SourceAlpha" type="matrix" values="0 0 0 0 0 0 0 0 0 0 0 0 0 0 0 0 0 0 127 0" result="hardAlpha"/>
<feOffset dy="1"/>
<feGaussianBlur stdDeviation="0.5"/>
<feComposite in2="hardAlpha" operator="arithmetic" k2="-1" k3="1"/>
<feColorMatrix type="matrix" values="0 0 0 0 1 0 0 0 0 1 0 0 0 0 1 0 0 0 0.2 0"/>
<feBlend mode="normal" in2="effect1_innerShadow_266_1373" result="effect2_innerShadow_266_1373"/>
</filter>
<filter id="filter4_f_266_1373" x="30.9829" y="27.4351" width="56.6328" height="77.71" filterUnits="userSpaceOnUse" color-interpolation-filters="sRGB">
<feFlood flood-opacity="0" result="BackgroundImageFix"/>
<feBlend mode="normal" in="SourceGraphic" in2="BackgroundImageFix" result="shape"/>
<feGaussianBlur stdDeviation="4.5" result="effect1_foregroundBlur_266_1373"/>
</filter>
<filter id="filter5_ii_266_1373" x="41.3979" y="42.5596" width="29.7178" height="34.1514" filterUnits="userSpaceOnUse" color-interpolation-filters="sRGB">
<feFlood flood-opacity="0" result="BackgroundImageFix"/>
<feBlend mode="normal" in="SourceGraphic" in2="BackgroundImageFix" result="shape"/>
<feColorMatrix in="SourceAlpha" type="matrix" values="0 0 0 0 0 0 0 0 0 0 0 0 0 0 0 0 0 0 127 0" result="hardAlpha"/>
<feOffset dy="2"/>
<feGaussianBlur stdDeviation="3"/>
<feComposite in2="hardAlpha" operator="arithmetic" k2="-1" k3="1"/>
<feColorMatrix type="matrix" values="0 0 0 0 0.878431 0 0 0 0 0.701961 0 0 0 0 0.443137 0 0 0 0.1 0"/>
<feBlend mode="normal" in2="shape" result="effect1_innerShadow_266_1373"/>
<feColorMatrix in="SourceAlpha" type="matrix" values="0 0 0 0 0 0 0 0 0 0 0 0 0 0 0 0 0 0 127 0" result="hardAlpha"/>
<feOffset dy="1"/>
<feGaussianBlur stdDeviation="0.5"/>
<feComposite in2="hardAlpha" operator="arithmetic" k2="-1" k3="1"/>
<feColorMatrix type="matrix" values="0 0 0 0 0.721569 0 0 0 0 0.572549 0 0 0 0 0.356863 0 0 0 0.2 0"/>
<feBlend mode="normal" in2="effect1_innerShadow_266_1373" result="effect2_innerShadow_266_1373"/>
</filter>
<filter id="filter6_f_266_1373" x="59.8403" y="42.3975" width="65.7612" height="81.7236" filterUnits="userSpaceOnUse" color-interpolation-filters="sRGB">
<feFlood flood-opacity="0" result="BackgroundImageFix"/>
<feBlend mode="normal" in="SourceGraphic" in2="BackgroundImageFix" result="shape"/>
<feGaussianBlur stdDeviation="4.5" result="effect1_foregroundBlur_266_1373"/>
</filter>
<filter id="filter7_ii_266_1373" x="56.3428" y="44.8618" width="72.2305" height="65.7236" filterUnits="userSpaceOnUse" color-interpolation-filters="sRGB">
<feFlood flood-opacity="0" result="BackgroundImageFix"/>
<feBlend mode="normal" in="SourceGraphic" in2="BackgroundImageFix" result="shape"/>
<feColorMatrix in="SourceAlpha" type="matrix" values="0 0 0 0 0 0 0 0 0 0 0 0 0 0 0 0 0 0 127 0" result="hardAlpha"/>
<feOffset dx="2" dy="4"/>
<feGaussianBlur stdDeviation="1"/>
<feComposite in2="hardAlpha" operator="arithmetic" k2="-1" k3="1"/>
<feColorMatrix type="matrix" values="0 0 0 0 1 0 0 0 0 1 0 0 0 0 1 0 0 0 0.2 0"/>
<feBlend mode="normal" in2="shape" result="effect1_innerShadow_266_1373"/>
<feColorMatrix in="SourceAlpha" type="matrix" values="0 0 0 0 0 0 0 0 0 0 0 0 0 0 0 0 0 0 127 0" result="hardAlpha"/>
<feOffset dx="-2"/>
<feGaussianBlur stdDeviation="3"/>
<feComposite in2="hardAlpha" operator="arithmetic" k2="-1" k3="1"/>
<feColorMatrix type="matrix" values="0 0 0 0 1 0 0 0 0 1 0 0 0 0 1 0 0 0 0.2 0"/>
<feBlend mode="normal" in2="effect1_innerShadow_266_1373" result="effect2_innerShadow_266_1373"/>
</filter>
<filter id="filter8_ii_266_1373" x="72.3384" y="59.5679" width="36.7397" height="36.313" filterUnits="userSpaceOnUse" color-interpolation-filters="sRGB">
<feFlood flood-opacity="0" result="BackgroundImageFix"/>
<feBlend mode="normal" in="SourceGraphic" in2="BackgroundImageFix" result="shape"/>
<feColorMatrix in="SourceAlpha" type="matrix" values="0 0 0 0 0 0 0 0 0 0 0 0 0 0 0 0 0 0 127 0" result="hardAlpha"/>
<feOffset dy="2"/>
<feGaussianBlur stdDeviation="3"/>
<feComposite in2="hardAlpha" operator="arithmetic" k2="-1" k3="1"/>
<feColorMatrix type="matrix" values="0 0 0 0 1 0 0 0 0 1 0 0 0 0 1 0 0 0 0.1 0"/>
<feBlend mode="normal" in2="shape" result="effect1_innerShadow_266_1373"/>
<feColorMatrix in="SourceAlpha" type="matrix" values="0 0 0 0 0 0 0 0 0 0 0 0 0 0 0 0 0 0 127 0" result="hardAlpha"/>
<feOffset dy="1"/>
<feGaussianBlur stdDeviation="0.5"/>
<feComposite in2="hardAlpha" operator="arithmetic" k2="-1" k3="1"/>
<feColorMatrix type="matrix" values="0 0 0 0 1 0 0 0 0 1 0 0 0 0 1 0 0 0 0.2 0"/>
<feBlend mode="normal" in2="effect1_innerShadow_266_1373" result="effect2_innerShadow_266_1373"/>
</filter>
<filter id="filter9_f_266_1373" x="26.5996" y="10.5356" width="65.7612" height="81.7236" filterUnits="userSpaceOnUse" color-interpolation-filters="sRGB">
<feFlood flood-opacity="0" result="BackgroundImageFix"/>
<feBlend mode="normal" in="SourceGraphic" in2="BackgroundImageFix" result="shape"/>
<feGaussianBlur stdDeviation="4.5" result="effect1_foregroundBlur_266_1373"/>
</filter>
<filter id="filter10_ii_266_1373" x="37.3472" y="26.0713" width="36.7397" height="36.313" filterUnits="userSpaceOnUse" color-interpolation-filters="sRGB">
<feFlood flood-opacity="0" result="BackgroundImageFix"/>
<feBlend mode="normal" in="SourceGraphic" in2="BackgroundImageFix" result="shape"/>
<feColorMatrix in="SourceAlpha" type="matrix" values="0 0 0 0 0 0 0 0 0 0 0 0 0 0 0 0 0 0 127 0" result="hardAlpha"/>
<feOffset dy="2"/>
<feGaussianBlur stdDeviation="3"/>
<feComposite in2="hardAlpha" operator="arithmetic" k2="-1" k3="1"/>
<feColorMatrix type="matrix" values="0 0 0 0 0.878431 0 0 0 0 0.701961 0 0 0 0 0.443137 0 0 0 0.1 0"/>
<feBlend mode="normal" in2="shape" result="effect1_innerShadow_266_1373"/>
<feColorMatrix in="SourceAlpha" type="matrix" values="0 0 0 0 0 0 0 0 0 0 0 0 0 0 0 0 0 0 127 0" result="hardAlpha"/>
<feOffset dy="1"/>
<feGaussianBlur stdDeviation="0.5"/>
<feComposite in2="hardAlpha" operator="arithmetic" k2="-1" k3="1"/>
<feColorMatrix type="matrix" values="0 0 0 0 0.721569 0 0 0 0 0.572549 0 0 0 0 0.356863 0 0 0 0.2 0"/>
<feBlend mode="normal" in2="effect1_innerShadow_266_1373" result="effect2_innerShadow_266_1373"/>
</filter>
</defs>
</svg>
