<svg width="135" height="151" viewBox="0 0 135 151" fill="none" xmlns="http://www.w3.org/2000/svg">
<g opacity="0.8" filter="url(#filter0_f_266_1479)">
<rect x="25.2266" y="25" width="84" height="101" rx="27" fill="#CDCDCD"/>
</g>
<rect x="16.2266" y="18" width="101" height="101" rx="27" fill="#CDCDCD"/>
<g filter="url(#filter1_ii_266_1479)">
<rect x="16.2266" y="11" width="101" height="101" rx="27" fill="#F3F3F3"/>
</g>
<g opacity="0.5" filter="url(#filter2_f_266_1479)">
<rect x="28.7891" y="50.8789" width="29.9009" height="7.11927" rx="3.55963" fill="#131313"/>
<rect x="28.7891" y="50.8789" width="29.9009" height="7.11927" rx="3.55963" fill="url(#paint0_linear_266_1479)"/>
<rect x="28.7891" y="65.1172" width="18.6881" height="7.11927" rx="3.55963" fill="#131313"/>
<rect x="28.7891" y="65.1172" width="18.6881" height="7.11927" rx="3.55963" fill="url(#paint1_linear_266_1479)"/>
</g>
<rect x="25.2266" y="48.21" width="42.7156" height="7.11927" rx="3.55963" fill="url(#paint2_linear_266_1479)"/>
<rect x="25.2266" y="62.4482" width="26.6972" height="7.11927" rx="3.55963" fill="url(#paint3_linear_266_1479)"/>
<rect x="25.2266" y="62.4482" width="26.6972" height="7.11927" rx="3.55963" fill="url(#paint4_linear_266_1479)"/>
<g opacity="0.8" filter="url(#filter3_f_266_1479)">
<path d="M89.6004 27.3416C90.8229 25.4182 93.6302 25.4182 94.8527 27.3416C95.5242 28.398 96.7652 28.9489 97.9994 28.7403C100.057 28.3925 101.873 30.1222 101.621 32.1934L101.491 33.2604C101.335 34.5427 101.831 35.8291 102.799 36.6841C104.607 38.2799 104.607 41.14 102.799 42.7358C101.831 43.5908 101.335 44.8772 101.491 46.1596L101.621 47.2265C101.873 49.2977 100.057 51.0274 97.9994 50.6796C96.7652 50.471 95.5242 51.0219 94.8527 52.0783C93.6302 54.0017 90.8229 54.0017 89.6004 52.0783C88.9289 51.0219 87.6879 50.471 86.4537 50.6796C84.3964 51.0274 82.5801 49.2977 82.8322 47.2265L82.962 46.1596C83.1181 44.8772 82.6221 43.5908 81.6537 42.7358C79.8463 41.14 79.8463 38.2799 81.6537 36.6841C82.6221 35.8291 83.1181 34.5427 82.962 33.2604L82.8322 32.1934C82.5801 30.1222 84.3964 28.3925 86.4537 28.7403C87.6879 28.9489 88.9289 28.398 89.6004 27.3416Z" fill="#B18C55"/>
</g>
<path d="M87.5386 20.0099C89.3991 17.5885 93.054 17.5885 94.9145 20.0099C95.9317 21.3337 97.5827 22.0102 99.2361 21.779L99.4488 21.7492C102.407 21.3355 104.933 23.8827 104.498 26.8382C104.257 28.4797 104.944 30.1214 106.284 31.1C108.729 32.8857 108.729 36.5342 106.284 38.3199C104.944 39.2986 104.257 40.9402 104.498 42.5818C104.933 45.5372 102.407 48.0844 99.4488 47.6707L99.2361 47.6409C97.5827 47.4097 95.9317 48.0862 94.9145 49.41C93.054 51.8315 89.3991 51.8315 87.5386 49.41C86.5215 48.0862 84.8704 47.4097 83.217 47.6409L83.0043 47.6707C80.0459 48.0844 77.5201 45.5372 77.9548 42.5818C78.1963 40.9402 77.5089 39.2986 76.169 38.3199C73.7241 36.5342 73.7241 32.8857 76.169 31.1C77.5089 30.1214 78.1963 28.4797 77.9548 26.8382C77.5201 23.8827 80.0459 21.3355 83.0043 21.7492L83.217 21.779C84.8704 22.0102 86.5215 21.3337 87.5386 20.0099Z" fill="#B18C55"/>
<g filter="url(#filter4_ii_266_1479)">
<path d="M87.5386 18.0099C89.3991 15.5885 93.054 15.5885 94.9145 18.0099C95.9317 19.3337 97.5827 20.0102 99.2361 19.779L99.4488 19.7492C102.407 19.3355 104.933 21.8827 104.498 24.8382C104.257 26.4797 104.944 28.1214 106.284 29.1C108.729 30.8857 108.729 34.5342 106.284 36.3199C104.944 37.2986 104.257 38.9402 104.498 40.5818C104.933 43.5372 102.407 46.0844 99.4488 45.6707L99.2361 45.6409C97.5827 45.4097 95.9317 46.0862 94.9145 47.41C93.054 49.8315 89.3991 49.8315 87.5386 47.41C86.5215 46.0862 84.8704 45.4097 83.217 45.6409L83.0043 45.6707C80.0459 46.0844 77.5201 43.5372 77.9548 40.5818C78.1963 38.9402 77.5089 37.2986 76.169 36.3199C73.7241 34.5342 73.7241 30.8857 76.169 29.1C77.5089 28.1214 78.1963 26.4797 77.9548 24.8382C77.5201 21.8827 80.0459 19.3355 83.0043 19.7492L83.217 19.779C84.8704 20.0102 86.5215 19.3337 87.5386 18.0099Z" fill="#E0B371"/>
</g>
<defs>
<filter id="filter0_f_266_1479" x="0.226562" y="0" width="134" height="151" filterUnits="userSpaceOnUse" color-interpolation-filters="sRGB">
<feFlood flood-opacity="0" result="BackgroundImageFix"/>
<feBlend mode="normal" in="SourceGraphic" in2="BackgroundImageFix" result="shape"/>
<feGaussianBlur stdDeviation="12.5" result="effect1_foregroundBlur_266_1479"/>
</filter>
<filter id="filter1_ii_266_1479" x="14.2266" y="11" width="105" height="103" filterUnits="userSpaceOnUse" color-interpolation-filters="sRGB">
<feFlood flood-opacity="0" result="BackgroundImageFix"/>
<feBlend mode="normal" in="SourceGraphic" in2="BackgroundImageFix" result="shape"/>
<feColorMatrix in="SourceAlpha" type="matrix" values="0 0 0 0 0 0 0 0 0 0 0 0 0 0 0 0 0 0 127 0" result="hardAlpha"/>
<feOffset dx="2" dy="4"/>
<feGaussianBlur stdDeviation="1"/>
<feComposite in2="hardAlpha" operator="arithmetic" k2="-1" k3="1"/>
<feColorMatrix type="matrix" values="0 0 0 0 1 0 0 0 0 1 0 0 0 0 1 0 0 0 0.2 0"/>
<feBlend mode="normal" in2="shape" result="effect1_innerShadow_266_1479"/>
<feColorMatrix in="SourceAlpha" type="matrix" values="0 0 0 0 0 0 0 0 0 0 0 0 0 0 0 0 0 0 127 0" result="hardAlpha"/>
<feOffset dx="-2"/>
<feGaussianBlur stdDeviation="3"/>
<feComposite in2="hardAlpha" operator="arithmetic" k2="-1" k3="1"/>
<feColorMatrix type="matrix" values="0 0 0 0 1 0 0 0 0 1 0 0 0 0 1 0 0 0 0.2 0"/>
<feBlend mode="normal" in2="effect1_innerShadow_266_1479" result="effect2_innerShadow_266_1479"/>
</filter>
<filter id="filter2_f_266_1479" x="22.7891" y="44.8789" width="41.9009" height="33.3574" filterUnits="userSpaceOnUse" color-interpolation-filters="sRGB">
<feFlood flood-opacity="0" result="BackgroundImageFix"/>
<feBlend mode="normal" in="SourceGraphic" in2="BackgroundImageFix" result="shape"/>
<feGaussianBlur stdDeviation="3" result="effect1_foregroundBlur_266_1479"/>
</filter>
<filter id="filter3_f_266_1479" x="72.2981" y="17.8989" width="39.8569" height="43.6221" filterUnits="userSpaceOnUse" color-interpolation-filters="sRGB">
<feFlood flood-opacity="0" result="BackgroundImageFix"/>
<feBlend mode="normal" in="SourceGraphic" in2="BackgroundImageFix" result="shape"/>
<feGaussianBlur stdDeviation="4" result="effect1_foregroundBlur_266_1479"/>
</filter>
<filter id="filter4_ii_266_1479" x="74.3354" y="16.1938" width="34.7822" height="34.0322" filterUnits="userSpaceOnUse" color-interpolation-filters="sRGB">
<feFlood flood-opacity="0" result="BackgroundImageFix"/>
<feBlend mode="normal" in="SourceGraphic" in2="BackgroundImageFix" result="shape"/>
<feColorMatrix in="SourceAlpha" type="matrix" values="0 0 0 0 0 0 0 0 0 0 0 0 0 0 0 0 0 0 127 0" result="hardAlpha"/>
<feOffset dx="1" dy="1"/>
<feGaussianBlur stdDeviation="1"/>
<feComposite in2="hardAlpha" operator="arithmetic" k2="-1" k3="1"/>
<feColorMatrix type="matrix" values="0 0 0 0 1 0 0 0 0 1 0 0 0 0 1 0 0 0 0.2 0"/>
<feBlend mode="normal" in2="shape" result="effect1_innerShadow_266_1479"/>
<feColorMatrix in="SourceAlpha" type="matrix" values="0 0 0 0 0 0 0 0 0 0 0 0 0 0 0 0 0 0 127 0" result="hardAlpha"/>
<feOffset dx="1"/>
<feGaussianBlur stdDeviation="1"/>
<feComposite in2="hardAlpha" operator="arithmetic" k2="-1" k3="1"/>
<feColorMatrix type="matrix" values="0 0 0 0 1 0 0 0 0 1 0 0 0 0 1 0 0 0 0.2 0"/>
<feBlend mode="normal" in2="effect1_innerShadow_266_1479" result="effect2_innerShadow_266_1479"/>
</filter>
<linearGradient id="paint0_linear_266_1479" x1="45.6083" y1="46.8743" x2="53.2882" y2="59.5461" gradientUnits="userSpaceOnUse">
<stop stop-color="#393939"/>
<stop offset="1" stop-color="#131313"/>
</linearGradient>
<linearGradient id="paint1_linear_266_1479" x1="39.3011" y1="61.1126" x2="47.9601" y2="70.0422" gradientUnits="userSpaceOnUse">
<stop stop-color="#393939"/>
<stop offset="1" stop-color="#131313"/>
</linearGradient>
<linearGradient id="paint2_linear_266_1479" x1="49.2541" y1="44.2054" x2="55.4834" y2="58.8889" gradientUnits="userSpaceOnUse">
<stop stop-color="#393939"/>
<stop offset="1" stop-color="#131313"/>
</linearGradient>
<linearGradient id="paint3_linear_266_1479" x1="38.5752" y1="62.4482" x2="38.5752" y2="69.5675" gradientUnits="userSpaceOnUse">
<stop stop-color="#131313"/>
<stop offset="1" stop-color="#131313" stop-opacity="0"/>
</linearGradient>
<linearGradient id="paint4_linear_266_1479" x1="40.2438" y1="58.4437" x2="48.295" y2="70.3048" gradientUnits="userSpaceOnUse">
<stop stop-color="#393939"/>
<stop offset="1" stop-color="#131313"/>
</linearGradient>
</defs>
</svg>
