<svg width="135" height="151" viewBox="0 0 135 151" fill="none" xmlns="http://www.w3.org/2000/svg">
<g opacity="0.8" filter="url(#filter0_f_266_1319)">
<rect x="25.2266" y="25" width="84" height="101" rx="27" fill="#004ED1"/>
</g>
<rect x="16.2266" y="18" width="101" height="101" rx="27" fill="#004ED1"/>
<g filter="url(#filter1_ii_266_1319)">
<rect x="16.2266" y="11" width="101" height="101" rx="27" fill="#005FFF"/>
</g>
<g filter="url(#filter2_f_266_1319)">
<path d="M67.1265 71.6875C72.3456 71.6875 76.5765 65.6433 76.5765 58.1875C76.5765 50.7317 72.3456 44.6875 67.1265 44.6875C61.9074 44.6875 57.6765 50.7317 57.6765 58.1875C57.6765 65.6433 61.9074 71.6875 67.1265 71.6875Z" fill="#0C3985"/>
<path d="M54.1329 95.3124H68.7331C66.6589 92.9374 65.2854 89.5355 64.885 85.7814C64.4846 82.0272 65.0865 78.1953 66.5714 75.0455C63.5176 74.8288 60.6402 72.9367 58.5389 69.7637C56.1834 71.1842 54.1731 73.5648 52.7592 76.6081C51.3453 79.6513 50.5905 83.2223 50.5891 86.8749V90.2499C50.5919 91.5913 50.9662 92.8767 51.6301 93.8252C52.2941 94.7738 53.1939 95.3084 54.1329 95.3124Z" fill="#0C3985"/>
<ellipse cx="75.5265" cy="84" rx="5.6" ry="8" fill="#0C3985"/>
<path d="M67.1265 83.5C67.1265 85.8363 67.6114 88.1201 68.52 90.0627C69.4286 92.0052 70.72 93.5193 72.2309 94.4133C73.7418 95.3074 75.4044 95.5413 77.0084 95.0855C78.6123 94.6297 80.0857 93.5047 81.2421 91.8527C82.3985 90.2007 83.186 88.0959 83.5051 85.8045C83.8241 83.5131 83.6604 81.138 83.0345 78.9796C82.4087 76.8211 81.3489 74.9762 79.9891 73.6783C78.6293 72.3803 77.0306 71.6875 75.3952 71.6875C73.203 71.6911 71.1012 72.9367 69.5511 75.1512C68.0009 77.3657 67.129 80.3682 67.1265 83.5ZM76.5765 80.125V81.8125H77.7577C78.071 81.8125 78.3715 81.9903 78.593 82.3068C78.8145 82.6232 78.939 83.0524 78.939 83.5C78.939 83.9476 78.8145 84.3768 78.593 84.6932C78.3715 85.0097 78.071 85.1875 77.7577 85.1875H76.5765V86.875C76.5765 87.3226 76.452 87.7518 76.2305 88.0682C76.009 88.3847 75.7085 88.5625 75.3952 88.5625C75.0819 88.5625 74.7815 88.3847 74.5599 88.0682C74.3384 87.7518 74.214 87.3226 74.214 86.875V85.1875H73.0327C72.7194 85.1875 72.419 85.0097 72.1974 84.6932C71.9759 84.3768 71.8515 83.9476 71.8515 83.5C71.8515 83.0524 71.9759 82.6232 72.1974 82.3068C72.419 81.9903 72.7194 81.8125 73.0327 81.8125H74.214V80.125C74.214 79.6774 74.3384 79.2482 74.5599 78.9318C74.7815 78.6153 75.0819 78.4375 75.3952 78.4375C75.7085 78.4375 76.009 78.6153 76.2305 78.9318C76.452 79.2482 76.5765 79.6774 76.5765 80.125Z" fill="#0C3985"/>
</g>
<path d="M67.2266 66.6875C74.6824 66.6875 80.7266 60.6433 80.7266 53.1875C80.7266 45.7317 74.6824 39.6875 67.2266 39.6875C59.7707 39.6875 53.7266 45.7317 53.7266 53.1875C53.7266 60.6433 59.7707 66.6875 67.2266 66.6875Z" fill="#004ED1"/>
<path d="M48.6641 90.3124H69.5216C66.5584 87.9374 64.5962 84.5355 64.0242 80.7814C63.4522 77.0272 64.3121 73.1953 66.4334 70.0455C62.0709 69.8288 57.9602 67.9367 54.9584 64.7637C51.5934 66.1842 48.7215 68.5648 46.7017 71.6081C44.6819 74.6513 43.6036 78.2223 43.6016 81.8749V85.2499C43.6056 86.5913 44.1402 87.8767 45.0888 88.8252C46.0373 89.7738 47.3226 90.3084 48.6641 90.3124Z" fill="#004ED1"/>
<circle cx="79.2266" cy="79" r="8" fill="#004ED1"/>
<path d="M67.2266 78.5C67.2266 80.8363 67.9194 83.1201 69.2173 85.0627C70.5153 87.0052 72.3602 88.5193 74.5186 89.4133C76.6771 90.3074 79.0522 90.5413 81.3436 90.0855C83.635 89.6297 85.7398 88.5047 87.3918 86.8527C89.0438 85.2007 90.1688 83.0959 90.6246 80.8045C91.0804 78.5131 90.8465 76.138 89.9524 73.9796C89.0583 71.8211 87.5443 69.9762 85.6017 68.6783C83.6592 67.3803 81.3754 66.6875 79.0391 66.6875C75.9073 66.6911 72.9048 67.9367 70.6903 70.1512C68.4758 72.3657 67.2301 75.3682 67.2266 78.5ZM80.7266 75.125V76.8125H82.4141C82.8616 76.8125 83.2908 76.9903 83.6073 77.3068C83.9238 77.6232 84.1016 78.0524 84.1016 78.5C84.1016 78.9476 83.9238 79.3768 83.6073 79.6932C83.2908 80.0097 82.8616 80.1875 82.4141 80.1875H80.7266V81.875C80.7266 82.3226 80.5488 82.7518 80.2323 83.0682C79.9158 83.3847 79.4866 83.5625 79.0391 83.5625C78.5915 83.5625 78.1623 83.3847 77.8458 83.0682C77.5294 82.7518 77.3516 82.3226 77.3516 81.875V80.1875H75.6641C75.2165 80.1875 74.7873 80.0097 74.4708 79.6932C74.1544 79.3768 73.9766 78.9476 73.9766 78.5C73.9766 78.0524 74.1544 77.6232 74.4708 77.3068C74.7873 76.9903 75.2165 76.8125 75.6641 76.8125H77.3516V75.125C77.3516 74.6774 77.5294 74.2482 77.8458 73.9318C78.1623 73.6153 78.5915 73.4375 79.0391 73.4375C79.4866 73.4375 79.9158 73.6153 80.2323 73.9318C80.5488 74.2482 80.7266 74.6774 80.7266 75.125Z" fill="#004ED1"/>
<g filter="url(#filter3_i_266_1319)">
<path d="M67.2266 63.6875C74.6824 63.6875 80.7266 57.6433 80.7266 50.1875C80.7266 42.7317 74.6824 36.6875 67.2266 36.6875C59.7707 36.6875 53.7266 42.7317 53.7266 50.1875C53.7266 57.6433 59.7707 63.6875 67.2266 63.6875Z" fill="white"/>
<path d="M48.6641 87.3124H69.5216C66.5584 84.9374 64.5962 81.5355 64.0242 77.7814C63.4522 74.0272 64.3121 70.1953 66.4334 67.0455C62.0709 66.8288 57.9602 64.9367 54.9584 61.7637C51.5934 63.1842 48.7215 65.5648 46.7017 68.6081C44.6819 71.6513 43.6036 75.2223 43.6016 78.8749V82.2499C43.6056 83.5913 44.1402 84.8767 45.0888 85.8252C46.0373 86.7738 47.3226 87.3084 48.6641 87.3124Z" fill="white"/>
<circle cx="79.2266" cy="76" r="8" fill="white"/>
<path d="M67.2266 75.5C67.2266 77.8363 67.9194 80.1201 69.2173 82.0627C70.5153 84.0052 72.3602 85.5193 74.5186 86.4133C76.6771 87.3074 79.0522 87.5413 81.3436 87.0855C83.635 86.6297 85.7398 85.5047 87.3918 83.8527C89.0438 82.2007 90.1688 80.0959 90.6246 77.8045C91.0804 75.5131 90.8465 73.138 89.9524 70.9796C89.0583 68.8211 87.5443 66.9762 85.6017 65.6783C83.6592 64.3803 81.3754 63.6875 79.0391 63.6875C75.9073 63.6911 72.9048 64.9367 70.6903 67.1512C68.4758 69.3657 67.2301 72.3682 67.2266 75.5ZM80.7266 72.125V73.8125H82.4141C82.8616 73.8125 83.2908 73.9903 83.6073 74.3068C83.9238 74.6232 84.1016 75.0524 84.1016 75.5C84.1016 75.9476 83.9238 76.3768 83.6073 76.6932C83.2908 77.0097 82.8616 77.1875 82.4141 77.1875H80.7266V78.875C80.7266 79.3226 80.5488 79.7518 80.2323 80.0682C79.9158 80.3847 79.4866 80.5625 79.0391 80.5625C78.5915 80.5625 78.1623 80.3847 77.8458 80.0682C77.5294 79.7518 77.3516 79.3226 77.3516 78.875V77.1875H75.6641C75.2165 77.1875 74.7873 77.0097 74.4708 76.6932C74.1544 76.3768 73.9766 75.9476 73.9766 75.5C73.9766 75.0524 74.1544 74.6232 74.4708 74.3068C74.7873 73.9903 75.2165 73.8125 75.6641 73.8125H77.3516V72.125C77.3516 71.6774 77.5294 71.2482 77.8458 70.9318C78.1623 70.6153 78.5915 70.4375 79.0391 70.4375C79.4866 70.4375 79.9158 70.6153 80.2323 70.9318C80.5488 71.2482 80.7266 71.6774 80.7266 72.125Z" fill="#1A1A1A"/>
</g>
<defs>
<filter id="filter0_f_266_1319" x="0.226562" y="0" width="134" height="151" filterUnits="userSpaceOnUse" color-interpolation-filters="sRGB">
<feFlood flood-opacity="0" result="BackgroundImageFix"/>
<feBlend mode="normal" in="SourceGraphic" in2="BackgroundImageFix" result="shape"/>
<feGaussianBlur stdDeviation="12.5" result="effect1_foregroundBlur_266_1319"/>
</filter>
<filter id="filter1_ii_266_1319" x="14.2266" y="11" width="105" height="103" filterUnits="userSpaceOnUse" color-interpolation-filters="sRGB">
<feFlood flood-opacity="0" result="BackgroundImageFix"/>
<feBlend mode="normal" in="SourceGraphic" in2="BackgroundImageFix" result="shape"/>
<feColorMatrix in="SourceAlpha" type="matrix" values="0 0 0 0 0 0 0 0 0 0 0 0 0 0 0 0 0 0 127 0" result="hardAlpha"/>
<feOffset dx="2" dy="4"/>
<feGaussianBlur stdDeviation="1"/>
<feComposite in2="hardAlpha" operator="arithmetic" k2="-1" k3="1"/>
<feColorMatrix type="matrix" values="0 0 0 0 1 0 0 0 0 1 0 0 0 0 1 0 0 0 0.2 0"/>
<feBlend mode="normal" in2="shape" result="effect1_innerShadow_266_1319"/>
<feColorMatrix in="SourceAlpha" type="matrix" values="0 0 0 0 0 0 0 0 0 0 0 0 0 0 0 0 0 0 127 0" result="hardAlpha"/>
<feOffset dx="-2"/>
<feGaussianBlur stdDeviation="3"/>
<feComposite in2="hardAlpha" operator="arithmetic" k2="-1" k3="1"/>
<feColorMatrix type="matrix" values="0 0 0 0 1 0 0 0 0 1 0 0 0 0 1 0 0 0 0.2 0"/>
<feBlend mode="normal" in2="effect1_innerShadow_266_1319" result="effect2_innerShadow_266_1319"/>
</filter>
<filter id="filter2_f_266_1319" x="40.2266" y="35" width="53.8" height="70" filterUnits="userSpaceOnUse" color-interpolation-filters="sRGB">
<feFlood flood-opacity="0" result="BackgroundImageFix"/>
<feBlend mode="normal" in="SourceGraphic" in2="BackgroundImageFix" result="shape"/>
<feGaussianBlur stdDeviation="4" result="effect1_foregroundBlur_266_1319"/>
</filter>
<filter id="filter3_i_266_1319" x="40.2266" y="35" width="54" height="54" filterUnits="userSpaceOnUse" color-interpolation-filters="sRGB">
<feFlood flood-opacity="0" result="BackgroundImageFix"/>
<feBlend mode="normal" in="SourceGraphic" in2="BackgroundImageFix" result="shape"/>
<feColorMatrix in="SourceAlpha" type="matrix" values="0 0 0 0 0 0 0 0 0 0 0 0 0 0 0 0 0 0 127 0" result="hardAlpha"/>
<feOffset/>
<feGaussianBlur stdDeviation="4"/>
<feComposite in2="hardAlpha" operator="arithmetic" k2="-1" k3="1"/>
<feColorMatrix type="matrix" values="0 0 0 0 0 0 0 0 0 0.372549 0 0 0 0 1 0 0 0 0.5 0"/>
<feBlend mode="normal" in2="shape" result="effect1_innerShadow_266_1319"/>
</filter>
</defs>
</svg>
