<svg width="135" height="151" viewBox="0 0 135 151" fill="none" xmlns="http://www.w3.org/2000/svg">
<g opacity="0.8" filter="url(#filter0_f_266_1111)">
<rect x="25.2266" y="25" width="84" height="101" rx="27" fill="#004ED1"/>
</g>
<rect x="16.2266" y="18" width="101" height="101" rx="27" fill="#004ED1"/>
<g filter="url(#filter1_ii_266_1111)">
<rect x="16.2266" y="11" width="101" height="101" rx="27" fill="#005FFF"/>
</g>
<g filter="url(#filter2_f_266_1111)">
<g clip-path="url(#clip0_266_1111)">
<path d="M65.8904 41.513L45.8915 59.5121C45.4675 59.896 45.2275 60.432 45.2275 61L45.2275 72.9993C45.2275 73.7873 45.6915 74.5032 46.4115 74.8272C47.1354 75.1472 47.9794 75.0152 48.5634 74.4872L67.2263 57.6922L85.8853 74.4872C86.4733 75.0152 87.3173 75.1512 88.0372 74.8272C88.7612 74.5032 89.2252 73.7873 89.2252 72.9993L89.2252 61C89.2252 60.432 88.9812 59.896 88.5652 59.5121L68.5663 41.513C67.8063 40.8291 66.6464 40.8291 65.8904 41.513Z" fill="#033A96"/>
<path d="M65.8904 67.5116L45.8915 85.5106C45.4675 85.8946 45.2275 86.4305 45.2275 86.9985L45.2275 98.9979C45.2275 99.7858 45.6915 100.502 46.4115 100.826C47.1354 101.146 47.9794 101.014 48.5634 100.486L67.2263 83.6907L85.8853 100.486C86.4733 101.014 87.3173 101.15 88.0372 100.826C88.7612 100.502 89.2252 99.7858 89.2252 98.9979L89.2252 86.9985C89.2252 86.4305 88.9812 85.8946 88.5652 85.5106L68.5663 67.5116C67.8063 66.8276 66.6464 66.8276 65.8904 67.5116Z" fill="#033A96"/>
</g>
</g>
<g clip-path="url(#clip1_266_1111)">
<path d="M65.8904 35.513L45.8915 53.5121C45.4675 53.896 45.2275 54.432 45.2275 55L45.2275 66.9993C45.2275 67.7873 45.6915 68.5032 46.4115 68.8272C47.1354 69.1472 47.9794 69.0152 48.5634 68.4872L67.2263 51.6922L85.8853 68.4872C86.4733 69.0152 87.3173 69.1512 88.0372 68.8272C88.7612 68.5032 89.2252 67.7873 89.2252 66.9993L89.2252 55C89.2252 54.432 88.9812 53.896 88.5652 53.5121L68.5663 35.513C67.8063 34.8291 66.6464 34.8291 65.8904 35.513Z" fill="#004ED1"/>
<path d="M65.8904 61.5116L45.8915 79.5106C45.4675 79.8946 45.2275 80.4305 45.2275 80.9985L45.2275 92.9979C45.2275 93.7858 45.6915 94.5018 46.4115 94.8258C47.1354 95.1457 47.9794 95.0138 48.5634 94.4858L67.2263 77.6907L85.8853 94.4858C86.4733 95.0137 87.3173 95.1497 88.0372 94.8258C88.7612 94.5018 89.2252 93.7858 89.2252 92.9979L89.2252 80.9985C89.2252 80.4305 88.9812 79.8946 88.5652 79.5106L68.5663 61.5116C67.8063 60.8276 66.6464 60.8276 65.8904 61.5116Z" fill="#004ED1"/>
</g>
<g clip-path="url(#clip2_266_1111)" filter="url(#filter3_i_266_1111)">
<path d="M65.8904 32.513L45.8915 50.5121C45.4675 50.896 45.2275 51.432 45.2275 52L45.2275 63.9993C45.2275 64.7873 45.6915 65.5032 46.4115 65.8272C47.1354 66.1472 47.9794 66.0152 48.5634 65.4872L67.2263 48.6922L85.8853 65.4872C86.4733 66.0152 87.3173 66.1512 88.0372 65.8272C88.7612 65.5032 89.2252 64.7873 89.2252 63.9993L89.2252 52C89.2252 51.432 88.9812 50.896 88.5652 50.5121L68.5663 32.513C67.8063 31.8291 66.6464 31.8291 65.8904 32.513Z" fill="white"/>
<path d="M65.8904 58.5116L45.8915 76.5106C45.4675 76.8946 45.2275 77.4305 45.2275 77.9985L45.2275 89.9979C45.2275 90.7858 45.6915 91.5018 46.4115 91.8258C47.1354 92.1457 47.9794 92.0138 48.5634 91.4858L67.2263 74.6907L85.8853 91.4858C86.4733 92.0137 87.3173 92.1497 88.0372 91.8258C88.7612 91.5018 89.2252 90.7858 89.2252 89.9979L89.2252 77.9985C89.2252 77.4305 88.9812 76.8946 88.5652 76.5106L68.5663 58.5116C67.8063 57.8276 66.6464 57.8276 65.8904 58.5116Z" fill="white"/>
</g>
<defs>
<filter id="filter0_f_266_1111" x="0.226562" y="0" width="134" height="151" filterUnits="userSpaceOnUse" color-interpolation-filters="sRGB">
<feFlood flood-opacity="0" result="BackgroundImageFix"/>
<feBlend mode="normal" in="SourceGraphic" in2="BackgroundImageFix" result="shape"/>
<feGaussianBlur stdDeviation="12.5" result="effect1_foregroundBlur_266_1111"/>
</filter>
<filter id="filter1_ii_266_1111" x="14.2266" y="11" width="105" height="103" filterUnits="userSpaceOnUse" color-interpolation-filters="sRGB">
<feFlood flood-opacity="0" result="BackgroundImageFix"/>
<feBlend mode="normal" in="SourceGraphic" in2="BackgroundImageFix" result="shape"/>
<feColorMatrix in="SourceAlpha" type="matrix" values="0 0 0 0 0 0 0 0 0 0 0 0 0 0 0 0 0 0 127 0" result="hardAlpha"/>
<feOffset dx="2" dy="4"/>
<feGaussianBlur stdDeviation="1"/>
<feComposite in2="hardAlpha" operator="arithmetic" k2="-1" k3="1"/>
<feColorMatrix type="matrix" values="0 0 0 0 1 0 0 0 0 1 0 0 0 0 1 0 0 0 0.2 0"/>
<feBlend mode="normal" in2="shape" result="effect1_innerShadow_266_1111"/>
<feColorMatrix in="SourceAlpha" type="matrix" values="0 0 0 0 0 0 0 0 0 0 0 0 0 0 0 0 0 0 127 0" result="hardAlpha"/>
<feOffset dx="-2"/>
<feGaussianBlur stdDeviation="3"/>
<feComposite in2="hardAlpha" operator="arithmetic" k2="-1" k3="1"/>
<feColorMatrix type="matrix" values="0 0 0 0 1 0 0 0 0 1 0 0 0 0 1 0 0 0 0.2 0"/>
<feBlend mode="normal" in2="effect1_innerShadow_266_1111" result="effect2_innerShadow_266_1111"/>
</filter>
<filter id="filter2_f_266_1111" x="26.2266" y="30" width="82" height="82" filterUnits="userSpaceOnUse" color-interpolation-filters="sRGB">
<feFlood flood-opacity="0" result="BackgroundImageFix"/>
<feBlend mode="normal" in="SourceGraphic" in2="BackgroundImageFix" result="shape"/>
<feGaussianBlur stdDeviation="5.5" result="effect1_foregroundBlur_266_1111"/>
</filter>
<filter id="filter3_i_266_1111" x="37.2266" y="32" width="60" height="60" filterUnits="userSpaceOnUse" color-interpolation-filters="sRGB">
<feFlood flood-opacity="0" result="BackgroundImageFix"/>
<feBlend mode="normal" in="SourceGraphic" in2="BackgroundImageFix" result="shape"/>
<feColorMatrix in="SourceAlpha" type="matrix" values="0 0 0 0 0 0 0 0 0 0 0 0 0 0 0 0 0 0 127 0" result="hardAlpha"/>
<feOffset/>
<feGaussianBlur stdDeviation="4"/>
<feComposite in2="hardAlpha" operator="arithmetic" k2="-1" k3="1"/>
<feColorMatrix type="matrix" values="0 0 0 0 0 0 0 0 0 0.372549 0 0 0 0 1 0 0 0 0.5 0"/>
<feBlend mode="normal" in2="shape" result="effect1_innerShadow_266_1111"/>
</filter>
<clipPath id="clip0_266_1111">
<rect x="37.2266" y="101" width="60" height="60" rx="27" transform="rotate(-90 37.2266 101)" fill="white"/>
</clipPath>
<clipPath id="clip1_266_1111">
<rect width="60" height="60" fill="white" transform="translate(37.2266 95) rotate(-90)"/>
</clipPath>
<clipPath id="clip2_266_1111">
<rect width="60" height="60" fill="white" transform="translate(37.2266 92) rotate(-90)"/>
</clipPath>
</defs>
</svg>
